<svg xmlns="http://www.w3.org/2000/svg" xmlns:xlink="http://www.w3.org/1999/xlink" contentStyleType="text/css" data-diagram-type="SEQUENCE" height="1945px" preserveAspectRatio="none" style="width:2535px;height:1945px;background:#FFFFFF;" version="1.1" viewBox="0 0 2535 1945" width="2535px" zoomAndPan="magnify"><title>EduForge - Institution: Affiliation + Approbation + Biblioth&#232;que (OCR) + Messagerie</title><defs/><g><text fill="#000000" font-family="sans-serif" font-size="14" font-weight="bold" lengthAdjust="spacing" textLength="665.4648" x="931.0918" y="27.9951">EduForge - Institution: Affiliation + Approbation + Biblioth&#232;que (OCR) + Messagerie</text><g class="participant-lifeline" data-entity-uid="part1" data-qualified-name="U" id="part1-lifeline"><g><title>Utilisateur .Prof..tudiant.</title><rect fill="#000000" fill-opacity="0.00000" height="1697.3047" width="8" x="93.3594" y="137.1875"/><line style="stroke:#181818;stroke-width:0.5;stroke-dasharray:5,5;" x1="97" x2="97" y1="137.1875" y2="1834.4922"/></g></g><g class="participant-lifeline" data-entity-uid="part2" data-qualified-name="IM" id="part2-lifeline"><g><title>Institution Manager</title><rect fill="#000000" fill-opacity="0.00000" height="1697.3047" width="8" x="267.0542" y="137.1875"/><line style="stroke:#181818;stroke-width:0.5;stroke-dasharray:5,5;" x1="270.7188" x2="270.7188" y1="137.1875" y2="1834.4922"/></g></g><g class="participant-lifeline" data-entity-uid="part3" data-qualified-name="AFC" id="part3-lifeline"><g><title>AffiliationController</title><rect fill="#000000" fill-opacity="0.00000" height="1697.3047" width="8" x="437.1479" y="137.1875"/><line style="stroke:#181818;stroke-width:0.5;stroke-dasharray:5,5;" x1="440.3115" x2="440.3115" y1="137.1875" y2="1834.4922"/></g></g><g class="participant-lifeline" data-entity-uid="part4" data-qualified-name="APS" id="part4-lifeline"><g><title>ApprovalService</title><rect fill="#000000" fill-opacity="0.00000" height="1697.3047" width="8" x="695.6812" y="137.1875"/><line style="stroke:#181818;stroke-width:0.5;stroke-dasharray:5,5;" x1="699.5977" x2="699.5977" y1="137.1875" y2="1834.4922"/></g></g><g class="participant-lifeline" data-entity-uid="part5" data-qualified-name="IC" id="part5-lifeline"><g><title>InstitutionController . LibraryController</title><rect fill="#000000" fill-opacity="0.00000" height="1697.3047" width="8" x="912.6494" y="137.1875"/><line style="stroke:#181818;stroke-width:0.5;stroke-dasharray:5,5;" x1="915.7646" x2="915.7646" y1="137.1875" y2="1834.4922"/></g></g><g class="participant-lifeline" data-entity-uid="part6" data-qualified-name="LS" id="part6-lifeline"><g><title>LibraryService</title><rect fill="#000000" fill-opacity="0.00000" height="1697.3047" width="8" x="1165.3901" y="137.1875"/><line style="stroke:#181818;stroke-width:0.5;stroke-dasharray:5,5;" x1="1168.5342" x2="1168.5342" y1="137.1875" y2="1834.4922"/></g></g><g class="participant-lifeline" data-entity-uid="part7" data-qualified-name="MC" id="part7-lifeline"><g><title>MessageController</title><rect fill="#000000" fill-opacity="0.00000" height="1697.3047" width="8" x="1347.5122" y="137.1875"/><line style="stroke:#181818;stroke-width:0.5;stroke-dasharray:5,5;" x1="1351.2461" x2="1351.2461" y1="137.1875" y2="1834.4922"/></g></g><g class="participant-lifeline" data-entity-uid="part8" data-qualified-name="MS" id="part8-lifeline"><g><title>MessageService</title><rect fill="#000000" fill-opacity="0.00000" height="1697.3047" width="8" x="1601.1323" y="137.1875"/><line style="stroke:#181818;stroke-width:0.5;stroke-dasharray:5,5;" x1="1604.582" x2="1604.582" y1="137.1875" y2="1834.4922"/></g></g><g class="participant-lifeline" data-entity-uid="part9" data-qualified-name="NS" id="part9-lifeline"><g><title>NotificationService</title><rect fill="#000000" fill-opacity="0.00000" height="1697.3047" width="8" x="1878.6133" y="137.1875"/><line style="stroke:#181818;stroke-width:0.5;stroke-dasharray:5,5;" x1="1882.5781" x2="1882.5781" y1="137.1875" y2="1834.4922"/></g></g><g class="participant-lifeline" data-entity-uid="part10" data-qualified-name="FS" id="part10-lifeline"><g><title>Storage</title><rect fill="#000000" fill-opacity="0.00000" height="1697.3047" width="8" x="2044.6025" y="137.1875"/><line style="stroke:#181818;stroke-width:0.5;stroke-dasharray:5,5;" x1="2047.6484" x2="2047.6484" y1="137.1875" y2="1834.4922"/></g></g><g class="participant-lifeline" data-entity-uid="part11" data-qualified-name="DB" id="part11-lifeline"><g><title>PostgreSQL</title><rect fill="#000000" fill-opacity="0.00000" height="1697.3047" width="8" x="2279.6167" y="137.1875"/><line style="stroke:#181818;stroke-width:0.5;stroke-dasharray:5,5;" x1="2283.5566" x2="2283.5566" y1="137.1875" y2="1834.4922"/></g></g><g class="participant-lifeline" data-entity-uid="part12" data-qualified-name="VIEW" id="part12-lifeline"><g><title>Thymeleaf</title><rect fill="#000000" fill-opacity="0.00000" height="1697.3047" width="8" x="2475.6626" y="137.1875"/><line style="stroke:#181818;stroke-width:0.5;stroke-dasharray:5,5;" x1="2478.6768" x2="2478.6768" y1="137.1875" y2="1834.4922"/></g></g><g class="participant participant-head" data-entity-uid="part1" data-qualified-name="U" id="part1-head"><text fill="#000000" font-family="sans-serif" font-size="14" lengthAdjust="spacing" textLength="178.7188" x="5" y="133.8857">Utilisateur (Prof/&#201;tudiant)</text><ellipse cx="97.3594" cy="69.3906" fill="#E2E2F0" rx="8" ry="8" style="stroke:#181818;stroke-width:0.5;"/><path d="M97.3594,77.3906 L97.3594,104.3906 M84.3594,85.3906 L110.3594,85.3906 M97.3594,104.3906 L84.3594,119.3906 M97.3594,104.3906 L110.3594,119.3906" fill="none" style="stroke:#181818;stroke-width:0.5;"/></g><g class="participant participant-tail" data-entity-uid="part1" data-qualified-name="U" id="part1-tail"><text fill="#000000" font-family="sans-serif" font-size="14" lengthAdjust="spacing" textLength="178.7188" x="5" y="1846.4873">Utilisateur (Prof/&#201;tudiant)</text><ellipse cx="97.3594" cy="1858.2891" fill="#E2E2F0" rx="8" ry="8" style="stroke:#181818;stroke-width:0.5;"/><path d="M97.3594,1866.2891 L97.3594,1893.2891 M84.3594,1874.2891 L110.3594,1874.2891 M97.3594,1893.2891 L84.3594,1908.2891 M97.3594,1893.2891 L110.3594,1908.2891" fill="none" style="stroke:#181818;stroke-width:0.5;"/></g><g class="participant participant-head" data-entity-uid="part2" data-qualified-name="IM" id="part2-head"><text fill="#000000" font-family="sans-serif" font-size="14" lengthAdjust="spacing" textLength="136.6709" x="199.7188" y="133.8857">Institution Manager</text><ellipse cx="271.0542" cy="69.3906" fill="#E2E2F0" rx="8" ry="8" style="stroke:#181818;stroke-width:0.5;"/><path d="M271.0542,77.3906 L271.0542,104.3906 M258.0542,85.3906 L284.0542,85.3906 M271.0542,104.3906 L258.0542,119.3906 M271.0542,104.3906 L284.0542,119.3906" fill="none" style="stroke:#181818;stroke-width:0.5;"/></g><g class="participant participant-tail" data-entity-uid="part2" data-qualified-name="IM" id="part2-tail"><text fill="#000000" font-family="sans-serif" font-size="14" lengthAdjust="spacing" textLength="136.6709" x="199.7188" y="1846.4873">Institution Manager</text><ellipse cx="271.0542" cy="1858.2891" fill="#E2E2F0" rx="8" ry="8" style="stroke:#181818;stroke-width:0.5;"/><path d="M271.0542,1866.2891 L271.0542,1893.2891 M258.0542,1874.2891 L284.0542,1874.2891 M271.0542,1893.2891 L258.0542,1908.2891 M271.0542,1893.2891 L284.0542,1908.2891" fill="none" style="stroke:#181818;stroke-width:0.5;"/></g><g class="participant participant-head" data-entity-uid="part3" data-qualified-name="AFC" id="part3-head"><rect fill="#E2E2F0" height="30.2969" rx="2.5" ry="2.5" style="stroke:#181818;stroke-width:0.5;" width="149.6729" x="366.3115" y="105.8906"/><text fill="#000000" font-family="sans-serif" font-size="14" lengthAdjust="spacing" textLength="135.6729" x="373.3115" y="125.8857">AffiliationController</text></g><g class="participant participant-tail" data-entity-uid="part3" data-qualified-name="AFC" id="part3-tail"><rect fill="#E2E2F0" height="30.2969" rx="2.5" ry="2.5" style="stroke:#181818;stroke-width:0.5;" width="149.6729" x="366.3115" y="1833.4922"/><text fill="#000000" font-family="sans-serif" font-size="14" lengthAdjust="spacing" textLength="135.6729" x="373.3115" y="1853.4873">AffiliationController</text></g><g class="participant participant-head" data-entity-uid="part4" data-qualified-name="APS" id="part4-head"><rect fill="#E2E2F0" height="30.2969" rx="2.5" ry="2.5" style="stroke:#181818;stroke-width:0.5;" width="128.167" x="635.5977" y="105.8906"/><text fill="#000000" font-family="sans-serif" font-size="14" lengthAdjust="spacing" textLength="114.167" x="642.5977" y="125.8857">ApprovalService</text></g><g class="participant participant-tail" data-entity-uid="part4" data-qualified-name="APS" id="part4-tail"><rect fill="#E2E2F0" height="30.2969" rx="2.5" ry="2.5" style="stroke:#181818;stroke-width:0.5;" width="128.167" x="635.5977" y="1833.4922"/><text fill="#000000" font-family="sans-serif" font-size="14" lengthAdjust="spacing" textLength="114.167" x="642.5977" y="1853.4873">ApprovalService</text></g><g class="participant participant-head" data-entity-uid="part5" data-qualified-name="IC" id="part5-head"><rect fill="#E2E2F0" height="30.2969" rx="2.5" ry="2.5" style="stroke:#181818;stroke-width:0.5;" width="285.7695" x="773.7646" y="105.8906"/><text fill="#000000" font-family="sans-serif" font-size="14" lengthAdjust="spacing" textLength="271.7695" x="780.7646" y="125.8857">InstitutionController / LibraryController</text></g><g class="participant participant-tail" data-entity-uid="part5" data-qualified-name="IC" id="part5-tail"><rect fill="#E2E2F0" height="30.2969" rx="2.5" ry="2.5" style="stroke:#181818;stroke-width:0.5;" width="285.7695" x="773.7646" y="1833.4922"/><text fill="#000000" font-family="sans-serif" font-size="14" lengthAdjust="spacing" textLength="271.7695" x="780.7646" y="1853.4873">InstitutionController / LibraryController</text></g><g class="participant participant-head" data-entity-uid="part6" data-qualified-name="LS" id="part6-head"><rect fill="#E2E2F0" height="46.5938" rx="2.5" ry="2.5" style="stroke:#181818;stroke-width:0.5;" width="199.7119" x="1069.5342" y="89.5938"/><text fill="#000000" font-family="sans-serif" font-size="14" lengthAdjust="spacing" textLength="100.6934" x="1119.0435" y="109.5889">LibraryService</text><text fill="#000000" font-family="sans-serif" font-size="14" lengthAdjust="spacing" textLength="185.7119" x="1076.5342" y="125.8857">(upload + OCR/extraction)</text></g><g class="participant participant-tail" data-entity-uid="part6" data-qualified-name="LS" id="part6-tail"><rect fill="#E2E2F0" height="46.5938" rx="2.5" ry="2.5" style="stroke:#181818;stroke-width:0.5;" width="199.7119" x="1069.5342" y="1833.4922"/><text fill="#000000" font-family="sans-serif" font-size="14" lengthAdjust="spacing" textLength="100.6934" x="1119.0435" y="1853.4873">LibraryService</text><text fill="#000000" font-family="sans-serif" font-size="14" lengthAdjust="spacing" textLength="185.7119" x="1076.5342" y="1869.7842">(upload + OCR/extraction)</text></g><g class="participant participant-head" data-entity-uid="part7" data-qualified-name="MC" id="part7-head"><rect fill="#E2E2F0" height="30.2969" rx="2.5" ry="2.5" style="stroke:#181818;stroke-width:0.5;" width="144.5322" x="1279.2461" y="105.8906"/><text fill="#000000" font-family="sans-serif" font-size="14" lengthAdjust="spacing" textLength="130.5322" x="1286.2461" y="125.8857">MessageController</text></g><g class="participant participant-tail" data-entity-uid="part7" data-qualified-name="MC" id="part7-tail"><rect fill="#E2E2F0" height="30.2969" rx="2.5" ry="2.5" style="stroke:#181818;stroke-width:0.5;" width="144.5322" x="1279.2461" y="1833.4922"/><text fill="#000000" font-family="sans-serif" font-size="14" lengthAdjust="spacing" textLength="130.5322" x="1286.2461" y="1853.4873">MessageController</text></g><g class="participant participant-head" data-entity-uid="part8" data-qualified-name="MS" id="part8-head"><rect fill="#E2E2F0" height="30.2969" rx="2.5" ry="2.5" style="stroke:#181818;stroke-width:0.5;" width="127.1006" x="1541.582" y="105.8906"/><text fill="#000000" font-family="sans-serif" font-size="14" lengthAdjust="spacing" textLength="113.1006" x="1548.582" y="125.8857">MessageService</text></g><g class="participant participant-tail" data-entity-uid="part8" data-qualified-name="MS" id="part8-tail"><rect fill="#E2E2F0" height="30.2969" rx="2.5" ry="2.5" style="stroke:#181818;stroke-width:0.5;" width="127.1006" x="1541.582" y="1833.4922"/><text fill="#000000" font-family="sans-serif" font-size="14" lengthAdjust="spacing" textLength="113.1006" x="1548.582" y="1853.4873">MessageService</text></g><g class="participant participant-head" data-entity-uid="part9" data-qualified-name="NS" id="part9-head"><rect fill="#E2E2F0" height="30.2969" rx="2.5" ry="2.5" style="stroke:#181818;stroke-width:0.5;" width="146.0703" x="1809.5781" y="105.8906"/><text fill="#000000" font-family="sans-serif" font-size="14" lengthAdjust="spacing" textLength="132.0703" x="1816.5781" y="125.8857">NotificationService</text></g><g class="participant participant-tail" data-entity-uid="part9" data-qualified-name="NS" id="part9-tail"><rect fill="#E2E2F0" height="30.2969" rx="2.5" ry="2.5" style="stroke:#181818;stroke-width:0.5;" width="146.0703" x="1809.5781" y="1833.4922"/><text fill="#000000" font-family="sans-serif" font-size="14" lengthAdjust="spacing" textLength="132.0703" x="1816.5781" y="1853.4873">NotificationService</text></g><g class="participant participant-head" data-entity-uid="part10" data-qualified-name="FS" id="part10-head"><rect fill="#E2E2F0" height="46.5938" rx="2.5" ry="2.5" style="stroke:#181818;stroke-width:0.5;" width="165.9082" x="1965.6484" y="89.5938"/><text fill="#000000" font-family="sans-serif" font-size="14" lengthAdjust="spacing" textLength="54.7764" x="2021.2144" y="109.5889">Storage</text><text fill="#000000" font-family="sans-serif" font-size="14" lengthAdjust="spacing" textLength="151.9082" x="1972.6484" y="125.8857">(data/uploads/library)</text></g><g class="participant participant-tail" data-entity-uid="part10" data-qualified-name="FS" id="part10-tail"><rect fill="#E2E2F0" height="46.5938" rx="2.5" ry="2.5" style="stroke:#181818;stroke-width:0.5;" width="165.9082" x="1965.6484" y="1833.4922"/><text fill="#000000" font-family="sans-serif" font-size="14" lengthAdjust="spacing" textLength="54.7764" x="2021.2144" y="1853.4873">Storage</text><text fill="#000000" font-family="sans-serif" font-size="14" lengthAdjust="spacing" textLength="151.9082" x="1972.6484" y="1869.7842">(data/uploads/library)</text></g><g class="participant participant-head" data-entity-uid="part11" data-qualified-name="DB" id="part11-head"><text fill="#000000" font-family="sans-serif" font-size="14" lengthAdjust="spacing" textLength="80.7529" x="2240.2402" y="101.292">PostgreSQL</text><text fill="#000000" font-family="sans-serif" font-size="14" lengthAdjust="spacing" textLength="255.1309" x="2153.0513" y="117.5889">(institution, institution_membership,</text><text fill="#000000" font-family="sans-serif" font-size="14" lengthAdjust="spacing" textLength="278.1201" x="2141.5566" y="133.8857">library_resource, message, notification)</text><path d="M2265.6167,52.2969 C2265.6167,42.2969 2283.6167,42.2969 2283.6167,42.2969 C2283.6167,42.2969 2301.6167,42.2969 2301.6167,52.2969 L2301.6167,78.2969 C2301.6167,88.2969 2283.6167,88.2969 2283.6167,88.2969 C2283.6167,88.2969 2265.6167,88.2969 2265.6167,78.2969 L2265.6167,52.2969" fill="#E2E2F0" style="stroke:#181818;stroke-width:0.5;"/><path d="M2265.6167,52.2969 C2265.6167,62.2969 2283.6167,62.2969 2283.6167,62.2969 C2283.6167,62.2969 2301.6167,62.2969 2301.6167,52.2969" fill="none" style="stroke:#181818;stroke-width:0.5;"/></g><g class="participant participant-tail" data-entity-uid="part11" data-qualified-name="DB" id="part11-tail"><text fill="#000000" font-family="sans-serif" font-size="14" lengthAdjust="spacing" textLength="80.7529" x="2240.2402" y="1846.4873">PostgreSQL</text><text fill="#000000" font-family="sans-serif" font-size="14" lengthAdjust="spacing" textLength="255.1309" x="2153.0513" y="1862.7842">(institution, institution_membership,</text><text fill="#000000" font-family="sans-serif" font-size="14" lengthAdjust="spacing" textLength="278.1201" x="2141.5566" y="1879.0811">library_resource, message, notification)</text><path d="M2265.6167,1892.3828 C2265.6167,1882.3828 2283.6167,1882.3828 2283.6167,1882.3828 C2283.6167,1882.3828 2301.6167,1882.3828 2301.6167,1892.3828 L2301.6167,1918.3828 C2301.6167,1928.3828 2283.6167,1928.3828 2283.6167,1928.3828 C2283.6167,1928.3828 2265.6167,1928.3828 2265.6167,1918.3828 L2265.6167,1892.3828" fill="#E2E2F0" style="stroke:#181818;stroke-width:0.5;"/><path d="M2265.6167,1892.3828 C2265.6167,1902.3828 2283.6167,1902.3828 2283.6167,1902.3828 C2283.6167,1902.3828 2301.6167,1902.3828 2301.6167,1892.3828" fill="none" style="stroke:#181818;stroke-width:0.5;"/></g><g class="participant participant-head" data-entity-uid="part12" data-qualified-name="VIEW" id="part12-head"><rect fill="#E2E2F0" height="30.2969" rx="2.5" ry="2.5" style="stroke:#181818;stroke-width:0.5;" width="87.9717" x="2435.6768" y="105.8906"/><text fill="#000000" font-family="sans-serif" font-size="14" lengthAdjust="spacing" textLength="73.9717" x="2442.6768" y="125.8857">Thymeleaf</text></g><g class="participant participant-tail" data-entity-uid="part12" data-qualified-name="VIEW" id="part12-tail"><rect fill="#E2E2F0" height="30.2969" rx="2.5" ry="2.5" style="stroke:#181818;stroke-width:0.5;" width="87.9717" x="2435.6768" y="1833.4922"/><text fill="#000000" font-family="sans-serif" font-size="14" lengthAdjust="spacing" textLength="73.9717" x="2442.6768" y="1853.4873">Thymeleaf</text></g><rect fill="#EEEEEE" height="3" style="stroke:#EEEEEE;stroke-width:1;" width="2528.6484" x="0" y="167.7539"/><line style="stroke:#000000;stroke-width:1;" x1="0" x2="2528.6484" y1="167.7539" y2="167.7539"/><line style="stroke:#000000;stroke-width:1;" x1="0" x2="2528.6484" y1="170.7539" y2="170.7539"/><rect fill="#EEEEEE" height="23.1328" style="stroke:#000000;stroke-width:2;" width="176.7222" x="1175.9631" y="157.1875"/><text fill="#000000" font-family="sans-serif" font-size="13" font-weight="bold" lengthAdjust="spacing" textLength="158.1963" x="1181.9631" y="173.2544">Demande d'affiliation</text><g class="message" data-entity-1="part1" data-entity-2="part3" id="msg1"><polygon fill="#181818" points="429.1479,207.4531,439.1479,211.4531,429.1479,215.4531,433.1479,211.4531" style="stroke:#181818;stroke-width:1;"/><line style="stroke:#181818;stroke-width:1;" x1="97.3594" x2="435.1479" y1="211.4531" y2="211.4531"/><text fill="#000000" font-family="sans-serif" font-size="13" lengthAdjust="spacing" textLength="319.7886" x="104.3594" y="206.3872">POST /institution/affiliation/request (InstitutionId)</text></g><g class="message" data-entity-1="part3" data-entity-2="part4" id="msg2"><polygon fill="#181818" points="687.6812,236.5859,697.6812,240.5859,687.6812,244.5859,691.6812,240.5859" style="stroke:#181818;stroke-width:1;"/><line style="stroke:#181818;stroke-width:1;" x1="441.1479" x2="693.6812" y1="240.5859" y2="240.5859"/><text fill="#000000" font-family="sans-serif" font-size="13" lengthAdjust="spacing" textLength="234.5332" x="448.1479" y="235.52">submitRequest(userId, institutionId)</text></g><g class="message" data-entity-1="part4" data-entity-2="part11" id="msg3"><polygon fill="#181818" points="2271.6167,265.7188,2281.6167,269.7188,2271.6167,273.7188,2275.6167,269.7188" style="stroke:#181818;stroke-width:1;"/><line style="stroke:#181818;stroke-width:1;" x1="699.6812" x2="2277.6167" y1="269.7188" y2="269.7188"/><text fill="#000000" font-family="sans-serif" font-size="13" lengthAdjust="spacing" textLength="325.3999" x="706.6812" y="264.6528">INSERT institution_membership(status=PENDING)</text></g><g class="message" data-entity-1="part11" data-entity-2="part4" id="msg4"><polygon fill="#181818" points="710.6812,294.8516,700.6812,298.8516,710.6812,302.8516,706.6812,298.8516" style="stroke:#181818;stroke-width:1;"/><line style="stroke:#181818;stroke-width:1;stroke-dasharray:2,2;" x1="704.6812" x2="2282.6167" y1="298.8516" y2="298.8516"/><text fill="#000000" font-family="sans-serif" font-size="13" lengthAdjust="spacing" textLength="15.4819" x="716.6812" y="293.7856">ok</text></g><g class="message" data-entity-1="part4" data-entity-2="part9" id="msg5"><polygon fill="#181818" points="1870.6133,323.9844,1880.6133,327.9844,1870.6133,331.9844,1874.6133,327.9844" style="stroke:#181818;stroke-width:1;"/><line style="stroke:#181818;stroke-width:1;" x1="699.6812" x2="1876.6133" y1="327.9844" y2="327.9844"/><text fill="#000000" font-family="sans-serif" font-size="13" lengthAdjust="spacing" textLength="527.3125" x="706.6812" y="322.9185">notifyUser(institutionOwner/manager, type=ENROLLMENT, "Nouvelle demande")</text></g><g class="message" data-entity-1="part9" data-entity-2="part11" id="msg6"><polygon fill="#181818" points="2271.6167,353.1172,2281.6167,357.1172,2271.6167,361.1172,2275.6167,357.1172" style="stroke:#181818;stroke-width:1;"/><line style="stroke:#181818;stroke-width:1;" x1="1882.6133" x2="2277.6167" y1="357.1172" y2="357.1172"/><text fill="#000000" font-family="sans-serif" font-size="13" lengthAdjust="spacing" textLength="124.2363" x="1889.6133" y="352.0513">INSERT notification</text></g><g class="message" data-entity-1="part11" data-entity-2="part9" id="msg7"><polygon fill="#181818" points="1893.6133,382.25,1883.6133,386.25,1893.6133,390.25,1889.6133,386.25" style="stroke:#181818;stroke-width:1;"/><line style="stroke:#181818;stroke-width:1;stroke-dasharray:2,2;" x1="1887.6133" x2="2282.6167" y1="386.25" y2="386.25"/><text fill="#000000" font-family="sans-serif" font-size="13" lengthAdjust="spacing" textLength="15.4819" x="1899.6133" y="381.1841">ok</text></g><g class="message" data-entity-1="part4" data-entity-2="part3" id="msg8"><polygon fill="#181818" points="452.1479,411.3828,442.1479,415.3828,452.1479,419.3828,448.1479,415.3828" style="stroke:#181818;stroke-width:1;"/><line style="stroke:#181818;stroke-width:1;stroke-dasharray:2,2;" x1="446.1479" x2="698.6812" y1="415.3828" y2="415.3828"/><text fill="#000000" font-family="sans-serif" font-size="13" lengthAdjust="spacing" textLength="15.4819" x="458.1479" y="410.3169">ok</text></g><g class="message" data-entity-1="part3" data-entity-2="part1" id="msg9"><polygon fill="#181818" points="108.3594,440.5156,98.3594,444.5156,108.3594,448.5156,104.3594,444.5156" style="stroke:#181818;stroke-width:1;"/><line style="stroke:#181818;stroke-width:1;stroke-dasharray:2,2;" x1="102.3594" x2="440.1479" y1="444.5156" y2="444.5156"/><text fill="#000000" font-family="sans-serif" font-size="13" lengthAdjust="spacing" textLength="130.7173" x="114.3594" y="439.4497">302 /my-institutions</text></g><rect fill="#EEEEEE" height="3" style="stroke:#EEEEEE;stroke-width:1;" width="2528.6484" x="0" y="473.082"/><line style="stroke:#000000;stroke-width:1;" x1="0" x2="2528.6484" y1="473.082" y2="473.082"/><line style="stroke:#000000;stroke-width:1;" x1="0" x2="2528.6484" y1="476.082" y2="476.082"/><rect fill="#EEEEEE" height="23.1328" style="stroke:#000000;stroke-width:2;" width="157.9902" x="1185.3291" y="462.5156"/><text fill="#000000" font-family="sans-serif" font-size="13" font-weight="bold" lengthAdjust="spacing" textLength="139.4644" x="1191.3291" y="478.5825">Approbation / rejet</text><g class="message" data-entity-1="part2" data-entity-2="part5" id="msg10"><polygon fill="#181818" points="904.6494,512.7813,914.6494,516.7813,904.6494,520.7813,908.6494,516.7813" style="stroke:#181818;stroke-width:1;"/><line style="stroke:#181818;stroke-width:1;" x1="271.0542" x2="910.6494" y1="516.7813" y2="516.7813"/><text fill="#000000" font-family="sans-serif" font-size="13" lengthAdjust="spacing" textLength="168.5049" x="278.0542" y="511.7153">GET /institution/approvals</text></g><g class="message" data-entity-1="part5" data-entity-2="part11" id="msg11"><polygon fill="#181818" points="2271.6167,541.9141,2281.6167,545.9141,2271.6167,549.9141,2275.6167,545.9141" style="stroke:#181818;stroke-width:1;"/><line style="stroke:#181818;stroke-width:1;" x1="916.6494" x2="2277.6167" y1="545.9141" y2="545.9141"/><text fill="#000000" font-family="sans-serif" font-size="13" lengthAdjust="spacing" textLength="301.4819" x="923.6494" y="540.8481">SELECT membership WHERE status=PENDING</text></g><g class="message" data-entity-1="part11" data-entity-2="part5" id="msg12"><polygon fill="#181818" points="927.6494,571.0469,917.6494,575.0469,927.6494,579.0469,923.6494,575.0469" style="stroke:#181818;stroke-width:1;"/><line style="stroke:#181818;stroke-width:1;stroke-dasharray:2,2;" x1="921.6494" x2="2282.6167" y1="575.0469" y2="575.0469"/><text fill="#000000" font-family="sans-serif" font-size="13" lengthAdjust="spacing" textLength="19.0938" x="933.6494" y="569.981">list</text></g><g class="message" data-entity-1="part5" data-entity-2="part12" id="msg13"><polygon fill="#181818" points="2467.6626,600.1797,2477.6626,604.1797,2467.6626,608.1797,2471.6626,604.1797" style="stroke:#181818;stroke-width:1;"/><line style="stroke:#181818;stroke-width:1;" x1="916.6494" x2="2473.6626" y1="604.1797" y2="604.1797"/><text fill="#000000" font-family="sans-serif" font-size="13" lengthAdjust="spacing" textLength="214.8174" x="923.6494" y="599.1138">render institution/approvals.html</text></g><g class="message" data-entity-1="part12" data-entity-2="part2" id="msg14"><polygon fill="#181818" points="282.0542,629.3125,272.0542,633.3125,282.0542,637.3125,278.0542,633.3125" style="stroke:#181818;stroke-width:1;"/><line style="stroke:#181818;stroke-width:1;stroke-dasharray:2,2;" x1="276.0542" x2="2478.6626" y1="633.3125" y2="633.3125"/><text fill="#000000" font-family="sans-serif" font-size="13" lengthAdjust="spacing" textLength="36.1753" x="288.0542" y="628.2466">HTML</text></g><g class="message" data-entity-1="part2" data-entity-2="part5" id="msg15"><polygon fill="#181818" points="904.6494,658.4453,914.6494,662.4453,904.6494,666.4453,908.6494,662.4453" style="stroke:#181818;stroke-width:1;"/><line style="stroke:#181818;stroke-width:1;" x1="271.0542" x2="910.6494" y1="662.4453" y2="662.4453"/><text fill="#000000" font-family="sans-serif" font-size="13" lengthAdjust="spacing" textLength="349.1846" x="278.0542" y="657.3794">POST /institution/approvals/{membershipId}/approve</text></g><g class="message" data-entity-1="part5" data-entity-2="part4" id="msg16"><polygon fill="#181818" points="710.6812,687.5781,700.6812,691.5781,710.6812,695.5781,706.6812,691.5781" style="stroke:#181818;stroke-width:1;"/><line style="stroke:#181818;stroke-width:1;" x1="704.6812" x2="915.6494" y1="691.5781" y2="691.5781"/><text fill="#000000" font-family="sans-serif" font-size="13" lengthAdjust="spacing" textLength="157.4854" x="716.6812" y="686.5122">approve(membershipId)</text></g><g class="message" data-entity-1="part4" data-entity-2="part11" id="msg17"><polygon fill="#181818" points="2271.6167,716.7109,2281.6167,720.7109,2271.6167,724.7109,2275.6167,720.7109" style="stroke:#181818;stroke-width:1;"/><line style="stroke:#181818;stroke-width:1;" x1="699.6812" x2="2277.6167" y1="720.7109" y2="720.7109"/><text fill="#000000" font-family="sans-serif" font-size="13" lengthAdjust="spacing" textLength="342.3481" x="706.6812" y="715.645">UPDATE institution_membership(status=APPROVED)</text></g><g class="message" data-entity-1="part11" data-entity-2="part4" id="msg18"><polygon fill="#181818" points="710.6812,745.8438,700.6812,749.8438,710.6812,753.8438,706.6812,749.8438" style="stroke:#181818;stroke-width:1;"/><line style="stroke:#181818;stroke-width:1;stroke-dasharray:2,2;" x1="704.6812" x2="2282.6167" y1="749.8438" y2="749.8438"/><text fill="#000000" font-family="sans-serif" font-size="13" lengthAdjust="spacing" textLength="15.4819" x="716.6812" y="744.7778">ok</text></g><g class="message" data-entity-1="part4" data-entity-2="part9" id="msg19"><polygon fill="#181818" points="1870.6133,774.9766,1880.6133,778.9766,1870.6133,782.9766,1874.6133,778.9766" style="stroke:#181818;stroke-width:1;"/><line style="stroke:#181818;stroke-width:1;" x1="699.6812" x2="1876.6133" y1="778.9766" y2="778.9766"/><text fill="#000000" font-family="sans-serif" font-size="13" lengthAdjust="spacing" textLength="382.0273" x="706.6812" y="773.9106">notifyUser(userId, type=SUCCESS, "Affiliation approuv&#233;e")</text></g><g class="message" data-entity-1="part9" data-entity-2="part11" id="msg20"><polygon fill="#181818" points="2271.6167,804.1094,2281.6167,808.1094,2271.6167,812.1094,2275.6167,808.1094" style="stroke:#181818;stroke-width:1;"/><line style="stroke:#181818;stroke-width:1;" x1="1882.6133" x2="2277.6167" y1="808.1094" y2="808.1094"/><text fill="#000000" font-family="sans-serif" font-size="13" lengthAdjust="spacing" textLength="124.2363" x="1889.6133" y="803.0435">INSERT notification</text></g><g class="message" data-entity-1="part11" data-entity-2="part9" id="msg21"><polygon fill="#181818" points="1893.6133,833.2422,1883.6133,837.2422,1893.6133,841.2422,1889.6133,837.2422" style="stroke:#181818;stroke-width:1;"/><line style="stroke:#181818;stroke-width:1;stroke-dasharray:2,2;" x1="1887.6133" x2="2282.6167" y1="837.2422" y2="837.2422"/><text fill="#000000" font-family="sans-serif" font-size="13" lengthAdjust="spacing" textLength="15.4819" x="1899.6133" y="832.1763">ok</text></g><g class="message" data-entity-1="part4" data-entity-2="part5" id="msg22"><polygon fill="#181818" points="904.6494,862.375,914.6494,866.375,904.6494,870.375,908.6494,866.375" style="stroke:#181818;stroke-width:1;"/><line style="stroke:#181818;stroke-width:1;stroke-dasharray:2,2;" x1="699.6812" x2="910.6494" y1="866.375" y2="866.375"/><text fill="#000000" font-family="sans-serif" font-size="13" lengthAdjust="spacing" textLength="15.4819" x="706.6812" y="861.3091">ok</text></g><g class="message" data-entity-1="part5" data-entity-2="part2" id="msg23"><polygon fill="#181818" points="282.0542,891.5078,272.0542,895.5078,282.0542,899.5078,278.0542,895.5078" style="stroke:#181818;stroke-width:1;"/><line style="stroke:#181818;stroke-width:1;stroke-dasharray:2,2;" x1="276.0542" x2="915.6494" y1="895.5078" y2="895.5078"/><text fill="#000000" font-family="sans-serif" font-size="13" lengthAdjust="spacing" textLength="59.8394" x="288.0542" y="890.4419">302 back</text></g><rect fill="#EEEEEE" height="3" style="stroke:#EEEEEE;stroke-width:1;" width="2528.6484" x="0" y="924.0742"/><line style="stroke:#000000;stroke-width:1;" x1="0" x2="2528.6484" y1="924.0742" y2="924.0742"/><line style="stroke:#000000;stroke-width:1;" x1="0" x2="2528.6484" y1="927.0742" y2="927.0742"/><rect fill="#EEEEEE" height="23.1328" style="stroke:#000000;stroke-width:2;" width="336.1563" x="1096.2461" y="913.5078"/><text fill="#000000" font-family="sans-serif" font-size="13" font-weight="bold" lengthAdjust="spacing" textLength="317.6304" x="1102.2461" y="929.5747">Upload ressource biblioth&#232;que (institution)</text><g class="message" data-entity-1="part2" data-entity-2="part5" id="msg24"><polygon fill="#181818" points="904.6494,963.7734,914.6494,967.7734,904.6494,971.7734,908.6494,967.7734" style="stroke:#181818;stroke-width:1;"/><line style="stroke:#181818;stroke-width:1;" x1="271.0542" x2="910.6494" y1="967.7734" y2="967.7734"/><text fill="#000000" font-family="sans-serif" font-size="13" lengthAdjust="spacing" textLength="195.1714" x="278.0542" y="962.7075">GET /institution/library/upload</text></g><g class="message" data-entity-1="part5" data-entity-2="part12" id="msg25"><polygon fill="#181818" points="2467.6626,992.9063,2477.6626,996.9063,2467.6626,1000.9063,2471.6626,996.9063" style="stroke:#181818;stroke-width:1;"/><line style="stroke:#181818;stroke-width:1;" x1="916.6494" x2="2473.6626" y1="996.9063" y2="996.9063"/><text fill="#000000" font-family="sans-serif" font-size="13" lengthAdjust="spacing" textLength="243.604" x="923.6494" y="991.8403">render institution/library_upload.html</text></g><g class="message" data-entity-1="part12" data-entity-2="part2" id="msg26"><polygon fill="#181818" points="282.0542,1022.0391,272.0542,1026.0391,282.0542,1030.0391,278.0542,1026.0391" style="stroke:#181818;stroke-width:1;"/><line style="stroke:#181818;stroke-width:1;stroke-dasharray:2,2;" x1="276.0542" x2="2478.6626" y1="1026.0391" y2="1026.0391"/><text fill="#000000" font-family="sans-serif" font-size="13" lengthAdjust="spacing" textLength="36.1753" x="288.0542" y="1020.9731">HTML</text></g><g class="message" data-entity-1="part2" data-entity-2="part5" id="msg27"><polygon fill="#181818" points="904.6494,1051.1719,914.6494,1055.1719,904.6494,1059.1719,908.6494,1055.1719" style="stroke:#181818;stroke-width:1;"/><line style="stroke:#181818;stroke-width:1;" x1="271.0542" x2="910.6494" y1="1055.1719" y2="1055.1719"/><text fill="#000000" font-family="sans-serif" font-size="13" lengthAdjust="spacing" textLength="270.791" x="278.0542" y="1050.106">POST /institution/library (file + metadata)</text></g><g class="message" data-entity-1="part5" data-entity-2="part6" id="msg28"><polygon fill="#181818" points="1157.3901,1080.3047,1167.3901,1084.3047,1157.3901,1088.3047,1161.3901,1084.3047" style="stroke:#181818;stroke-width:1;"/><line style="stroke:#181818;stroke-width:1;" x1="916.6494" x2="1163.3901" y1="1084.3047" y2="1084.3047"/><text fill="#000000" font-family="sans-serif" font-size="13" lengthAdjust="spacing" textLength="160.1387" x="923.6494" y="1079.2388">upload(institutionId, file)</text></g><g class="message" data-entity-1="part6" data-entity-2="part10" id="msg29"><polygon fill="#181818" points="2036.6025,1109.4375,2046.6025,1113.4375,2036.6025,1117.4375,2040.6025,1113.4375" style="stroke:#181818;stroke-width:1;"/><line style="stroke:#181818;stroke-width:1;" x1="1169.3901" x2="2042.6025" y1="1113.4375" y2="1113.4375"/><text fill="#000000" font-family="sans-serif" font-size="13" lengthAdjust="spacing" textLength="107.7642" x="1176.3901" y="1108.3716">save file -&gt; path</text></g><g class="message" data-entity-1="part10" data-entity-2="part6" id="msg30"><polygon fill="#181818" points="1180.3901,1138.5703,1170.3901,1142.5703,1180.3901,1146.5703,1176.3901,1142.5703" style="stroke:#181818;stroke-width:1;"/><line style="stroke:#181818;stroke-width:1;stroke-dasharray:2,2;" x1="1174.3901" x2="2047.6025" y1="1142.5703" y2="1142.5703"/><text fill="#000000" font-family="sans-serif" font-size="13" lengthAdjust="spacing" textLength="70.5605" x="1186.3901" y="1137.5044">storedPath</text></g><g class="message" data-entity-1="part6" data-entity-2="part6" id="msg31"><line style="stroke:#181818;stroke-width:1;" x1="1169.3901" x2="1211.3901" y1="1171.7031" y2="1171.7031"/><line style="stroke:#181818;stroke-width:1;" x1="1211.3901" x2="1211.3901" y1="1171.7031" y2="1184.7031"/><line style="stroke:#181818;stroke-width:1;" x1="1170.3901" x2="1211.3901" y1="1184.7031" y2="1184.7031"/><polygon fill="#181818" points="1180.3901,1180.7031,1170.3901,1184.7031,1180.3901,1188.7031,1176.3901,1184.7031" style="stroke:#181818;stroke-width:1;"/><text fill="#000000" font-family="sans-serif" font-size="13" lengthAdjust="spacing" textLength="85.2173" x="1176.3901" y="1166.6372">extractText()</text></g><path d="M1174,1197.7031 L1174,1222.7031 L1524,1222.7031 L1524,1207.7031 L1514,1197.7031 L1174,1197.7031" fill="#FEFFDD" style="stroke:#181818;stroke-width:0.5;"/><path d="M1514,1197.7031 L1514,1207.7031 L1524,1207.7031 L1514,1197.7031" fill="#FEFFDD" style="stroke:#181818;stroke-width:0.5;"/><text fill="#000000" font-family="sans-serif" font-size="13" lengthAdjust="spacing" textLength="329.9829" x="1180" y="1214.77">Extraction OCR/texte selon type (PDF, image, etc.)</text><g class="message" data-entity-1="part6" data-entity-2="part11" id="msg32"><polygon fill="#181818" points="2271.6167,1244.9688,2281.6167,1248.9688,2271.6167,1252.9688,2275.6167,1248.9688" style="stroke:#181818;stroke-width:1;"/><line style="stroke:#181818;stroke-width:1;" x1="1169.3901" x2="2277.6167" y1="1248.9688" y2="1248.9688"/><text fill="#000000" font-family="sans-serif" font-size="13" lengthAdjust="spacing" textLength="385.5757" x="1176.3901" y="1243.9028">INSERT library_resource(path, extracted_text, category, ...)</text></g><g class="message" data-entity-1="part11" data-entity-2="part6" id="msg33"><polygon fill="#181818" points="1180.3901,1274.1016,1170.3901,1278.1016,1180.3901,1282.1016,1176.3901,1278.1016" style="stroke:#181818;stroke-width:1;"/><line style="stroke:#181818;stroke-width:1;stroke-dasharray:2,2;" x1="1174.3901" x2="2282.6167" y1="1278.1016" y2="1278.1016"/><text fill="#000000" font-family="sans-serif" font-size="13" lengthAdjust="spacing" textLength="15.4819" x="1186.3901" y="1273.0356">ok</text></g><g class="message" data-entity-1="part6" data-entity-2="part9" id="msg34"><polygon fill="#181818" points="1870.6133,1303.2344,1880.6133,1307.2344,1870.6133,1311.2344,1874.6133,1307.2344" style="stroke:#181818;stroke-width:1;"/><line style="stroke:#181818;stroke-width:1;" x1="1169.3901" x2="1876.6133" y1="1307.2344" y2="1307.2344"/><text fill="#000000" font-family="sans-serif" font-size="13" lengthAdjust="spacing" textLength="381.272" x="1176.3901" y="1302.1685">notify members (optional) "Nouvelle ressource disponible"</text></g><g class="message" data-entity-1="part9" data-entity-2="part11" id="msg35"><polygon fill="#181818" points="2271.6167,1332.3672,2281.6167,1336.3672,2271.6167,1340.3672,2275.6167,1336.3672" style="stroke:#181818;stroke-width:1;"/><line style="stroke:#181818;stroke-width:1;" x1="1882.6133" x2="2277.6167" y1="1336.3672" y2="1336.3672"/><text fill="#000000" font-family="sans-serif" font-size="13" lengthAdjust="spacing" textLength="203.2646" x="1889.6133" y="1331.3013">INSERT notification (broadcast)</text></g><g class="message" data-entity-1="part11" data-entity-2="part9" id="msg36"><polygon fill="#181818" points="1893.6133,1361.5,1883.6133,1365.5,1893.6133,1369.5,1889.6133,1365.5" style="stroke:#181818;stroke-width:1;"/><line style="stroke:#181818;stroke-width:1;stroke-dasharray:2,2;" x1="1887.6133" x2="2282.6167" y1="1365.5" y2="1365.5"/><text fill="#000000" font-family="sans-serif" font-size="13" lengthAdjust="spacing" textLength="15.4819" x="1899.6133" y="1360.4341">ok</text></g><g class="message" data-entity-1="part6" data-entity-2="part5" id="msg37"><polygon fill="#181818" points="927.6494,1390.6328,917.6494,1394.6328,927.6494,1398.6328,923.6494,1394.6328" style="stroke:#181818;stroke-width:1;"/><line style="stroke:#181818;stroke-width:1;stroke-dasharray:2,2;" x1="921.6494" x2="1168.3901" y1="1394.6328" y2="1394.6328"/><text fill="#000000" font-family="sans-serif" font-size="13" lengthAdjust="spacing" textLength="15.4819" x="933.6494" y="1389.5669">ok</text></g><g class="message" data-entity-1="part5" data-entity-2="part2" id="msg38"><polygon fill="#181818" points="282.0542,1419.7656,272.0542,1423.7656,282.0542,1427.7656,278.0542,1423.7656" style="stroke:#181818;stroke-width:1;"/><line style="stroke:#181818;stroke-width:1;stroke-dasharray:2,2;" x1="276.0542" x2="915.6494" y1="1423.7656" y2="1423.7656"/><text fill="#000000" font-family="sans-serif" font-size="13" lengthAdjust="spacing" textLength="145.1011" x="288.0542" y="1418.6997">302 /institution/library</text></g><rect fill="#EEEEEE" height="3" style="stroke:#EEEEEE;stroke-width:1;" width="2528.6484" x="0" y="1452.332"/><line style="stroke:#000000;stroke-width:1;" x1="0" x2="2528.6484" y1="1452.332" y2="1452.332"/><line style="stroke:#000000;stroke-width:1;" x1="0" x2="2528.6484" y1="1455.332" y2="1455.332"/><rect fill="#EEEEEE" height="23.1328" style="stroke:#000000;stroke-width:2;" width="220.6797" x="1153.9844" y="1441.7656"/><text fill="#000000" font-family="sans-serif" font-size="13" font-weight="bold" lengthAdjust="spacing" textLength="202.1538" x="1159.9844" y="1457.8325">Messagerie (direct / classe)</text><g class="message" data-entity-1="part1" data-entity-2="part7" id="msg39"><polygon fill="#181818" points="1339.5122,1492.0313,1349.5122,1496.0313,1339.5122,1500.0313,1343.5122,1496.0313" style="stroke:#181818;stroke-width:1;"/><line style="stroke:#181818;stroke-width:1;" x1="97.3594" x2="1345.5122" y1="1496.0313" y2="1496.0313"/><text fill="#000000" font-family="sans-serif" font-size="13" lengthAdjust="spacing" textLength="163.0586" x="104.3594" y="1490.9653">GET /messages/compose</text></g><g class="message" data-entity-1="part7" data-entity-2="part12" id="msg40"><polygon fill="#181818" points="2467.6626,1521.1641,2477.6626,1525.1641,2467.6626,1529.1641,2471.6626,1525.1641" style="stroke:#181818;stroke-width:1;"/><line style="stroke:#181818;stroke-width:1;" x1="1351.5122" x2="2473.6626" y1="1525.1641" y2="1525.1641"/><text fill="#000000" font-family="sans-serif" font-size="13" lengthAdjust="spacing" textLength="209.3711" x="1358.5122" y="1520.0981">render messages/compose.html</text></g><g class="message" data-entity-1="part12" data-entity-2="part1" id="msg41"><polygon fill="#181818" points="108.3594,1550.2969,98.3594,1554.2969,108.3594,1558.2969,104.3594,1554.2969" style="stroke:#181818;stroke-width:1;"/><line style="stroke:#181818;stroke-width:1;stroke-dasharray:2,2;" x1="102.3594" x2="2478.6626" y1="1554.2969" y2="1554.2969"/><text fill="#000000" font-family="sans-serif" font-size="13" lengthAdjust="spacing" textLength="36.1753" x="114.3594" y="1549.231">HTML</text></g><g class="message" data-entity-1="part1" data-entity-2="part7" id="msg42"><polygon fill="#181818" points="1339.5122,1579.4297,1349.5122,1583.4297,1339.5122,1587.4297,1343.5122,1583.4297" style="stroke:#181818;stroke-width:1;"/><line style="stroke:#181818;stroke-width:1;" x1="97.3594" x2="1345.5122" y1="1583.4297" y2="1583.4297"/><text fill="#000000" font-family="sans-serif" font-size="13" lengthAdjust="spacing" textLength="270.6958" x="104.3594" y="1578.3638">POST /messages/send (toUserId, content)</text></g><g class="message" data-entity-1="part7" data-entity-2="part8" id="msg43"><polygon fill="#181818" points="1593.1323,1608.5625,1603.1323,1612.5625,1593.1323,1616.5625,1597.1323,1612.5625" style="stroke:#181818;stroke-width:1;"/><line style="stroke:#181818;stroke-width:1;" x1="1351.5122" x2="1599.1323" y1="1612.5625" y2="1612.5625"/><text fill="#000000" font-family="sans-serif" font-size="13" lengthAdjust="spacing" textLength="229.6201" x="1358.5122" y="1607.4966">send(senderId, receiverId, content)</text></g><g class="message" data-entity-1="part8" data-entity-2="part11" id="msg44"><polygon fill="#181818" points="2271.6167,1637.6953,2281.6167,1641.6953,2271.6167,1645.6953,2275.6167,1641.6953" style="stroke:#181818;stroke-width:1;"/><line style="stroke:#181818;stroke-width:1;" x1="1605.1323" x2="2277.6167" y1="1641.6953" y2="1641.6953"/><text fill="#000000" font-family="sans-serif" font-size="13" lengthAdjust="spacing" textLength="380.0469" x="1612.1323" y="1636.6294">INSERT message(type=DIRECT, sender, receiver, content)</text></g><g class="message" data-entity-1="part11" data-entity-2="part8" id="msg45"><polygon fill="#181818" points="1616.1323,1666.8281,1606.1323,1670.8281,1616.1323,1674.8281,1612.1323,1670.8281" style="stroke:#181818;stroke-width:1;"/><line style="stroke:#181818;stroke-width:1;stroke-dasharray:2,2;" x1="1610.1323" x2="2282.6167" y1="1670.8281" y2="1670.8281"/><text fill="#000000" font-family="sans-serif" font-size="13" lengthAdjust="spacing" textLength="70.5098" x="1622.1323" y="1665.7622">messageId</text></g><g class="message" data-entity-1="part8" data-entity-2="part9" id="msg46"><polygon fill="#181818" points="1870.6133,1695.9609,1880.6133,1699.9609,1870.6133,1703.9609,1874.6133,1699.9609" style="stroke:#181818;stroke-width:1;"/><line style="stroke:#181818;stroke-width:1;" x1="1605.1323" x2="1876.6133" y1="1699.9609" y2="1699.9609"/><text fill="#000000" font-family="sans-serif" font-size="13" lengthAdjust="spacing" textLength="253.481" x="1612.1323" y="1694.895">notifyUser(receiverId, type=MESSAGE)</text></g><g class="message" data-entity-1="part9" data-entity-2="part11" id="msg47"><polygon fill="#181818" points="2271.6167,1725.0938,2281.6167,1729.0938,2271.6167,1733.0938,2275.6167,1729.0938" style="stroke:#181818;stroke-width:1;"/><line style="stroke:#181818;stroke-width:1;" x1="1882.6133" x2="2277.6167" y1="1729.0938" y2="1729.0938"/><text fill="#000000" font-family="sans-serif" font-size="13" lengthAdjust="spacing" textLength="124.2363" x="1889.6133" y="1724.0278">INSERT notification</text></g><g class="message" data-entity-1="part11" data-entity-2="part9" id="msg48"><polygon fill="#181818" points="1893.6133,1754.2266,1883.6133,1758.2266,1893.6133,1762.2266,1889.6133,1758.2266" style="stroke:#181818;stroke-width:1;"/><line style="stroke:#181818;stroke-width:1;stroke-dasharray:2,2;" x1="1887.6133" x2="2282.6167" y1="1758.2266" y2="1758.2266"/><text fill="#000000" font-family="sans-serif" font-size="13" lengthAdjust="spacing" textLength="15.4819" x="1899.6133" y="1753.1606">ok</text></g><g class="message" data-entity-1="part8" data-entity-2="part7" id="msg49"><polygon fill="#181818" points="1362.5122,1783.3594,1352.5122,1787.3594,1362.5122,1791.3594,1358.5122,1787.3594" style="stroke:#181818;stroke-width:1;"/><line style="stroke:#181818;stroke-width:1;stroke-dasharray:2,2;" x1="1356.5122" x2="1604.1323" y1="1787.3594" y2="1787.3594"/><text fill="#000000" font-family="sans-serif" font-size="13" lengthAdjust="spacing" textLength="15.4819" x="1368.5122" y="1782.2935">ok</text></g><g class="message" data-entity-1="part7" data-entity-2="part1" id="msg50"><polygon fill="#181818" points="108.3594,1812.4922,98.3594,1816.4922,108.3594,1820.4922,104.3594,1816.4922" style="stroke:#181818;stroke-width:1;"/><line style="stroke:#181818;stroke-width:1;stroke-dasharray:2,2;" x1="102.3594" x2="1350.5122" y1="1816.4922" y2="1816.4922"/><text fill="#000000" font-family="sans-serif" font-size="13" lengthAdjust="spacing" textLength="131.0093" x="114.3594" y="1811.4263">302 /messages/sent</text></g><!--SRC=[dLRTZk8s5BxFKnnnqqJDaAgzGw8I0s4s4c5I0hitAurCSXZSpLzjXowg-W1za_OvviLgnmwOTBRJxXMoSyxt7N_dyp62YW8XpDjbpPuHxY2gkA2Y5RIk9Z0x76X1YLh0jp1h6bRl-zKztHUq5iUNFtzf4Tp7-SQJkp5oJfwHKNGSaecQmMWd90Od0bi6RiBgG_3oXsXpIYhXZO1msFMH5ZV4f58uNK0KEmrXWcQqaKamiigQrvLWTL6OoDboFWXLDPz8aI8xqGnrK9BU1bcyLpm8O4NtZB3pW2CQK9Wem_2nSjkcg4aknP2Q1FXPC7ay2QqFknfm6y467F7yrIZx5F40Q5qBUg1PfueTjnx4fL9g2INhp8aWWIwM1uK-XIvocJhguvvmX55IS_7CCFrf9NFeLIeVhCLJYUKU6J_InlzO6R0dXhnkMOO-bFe0FbHMcPfiSNzRuFPuBh50SkY-le_23uupdS82IrBb2Fatn7BbTEhiuEv7rVW998_f5WAhgi0A3HXAet81hjNkAFSScTeX9Ea4UBilgTZeIBVboAByvfnTGfAgXCNz1A9r6cwsNn32vOA8ba-JSBs8rW-UixY7kvwf_jJZhEMgK-Myatosme-_LiY2Kjy47yIvmMcutZokLd6utlggv-q9fMaWr-ACF6SzhCqMlAzWRHNGYwVMIWcvtatWX- - -Xw0ytrdLyAuDzX08WE7FA5GJebZHHXBd8Hpsm5n1xaJplhOqN8NpBLorWW_lmaq8juhrvIfOEKA40L2Mc4XgUM06hpADZw8i71Mdy-C9lDl6AySgynMlzDd1RzUwelntym4DUzSzi-NQWJV6s2MBsJPymnYp9DaylWyN_z4PlHqx7wIx-JnCK_zc6kgwsjFBNrzhXKWx8PfVX5DEs9FiKzVzdHvjybxhYmtxsrV0Eg_tXYtCZ303wAtMzXD5HtzLVmq4k58kbDEvH47KbFCCzqegeU7TcmllWqhmd5Kdvr9D2NB2RbDjD4GSdQLMJq5mELynJzIkIL6xvXdOob_NSsGZ41XzFWge3-f922-lHFTe21c6mB6GQzLj-Mukbd8EbTq8HP6DFKTgf1gAFOlLv-7uTLMDVby3vayAtmTf17oksTc7yNXyyU1A6yAWNYtONrPmwqOLIWhF6a1NH-IKDtKbRO6ZVtSWk7icnSu85zx0ZHtv5ztuMbSxTrx_V82RKuQPa2CgAmZdw5rUYhWtetcIU93LPLDpTE9_Md0OCp3UhlVT1LdRxfB6LPTSKU_CrStaCu_oVu_XYfLVP8ZBEpeL8Qj6UXf63tKq16ut2XRHHWvJ7pJ85S82CF8gFfCQvGPrC6Hi_WuzbbDczX3-lt4Iw_x5kd_nu5cnr15_0m00]--></g></svg>