<svg xmlns="http://www.w3.org/2000/svg" xmlns:xlink="http://www.w3.org/1999/xlink" contentStyleType="text/css" data-diagram-type="SEQUENCE" height="1460px" preserveAspectRatio="none" style="width:1764px;height:1460px;background:#FFFFFF;" version="1.1" viewBox="0 0 1764 1460" width="1764px" zoomAndPan="magnify"><title>EduForge - Authentification + Redirection Dashboard (multi-r&#244;les)</title><defs/><g><text fill="#000000" font-family="sans-serif" font-size="14" font-weight="bold" lengthAdjust="spacing" textLength="524.918" x="615.8125" y="27.9951">EduForge - Authentification + Redirection Dashboard (multi-r&#244;les)</text><rect fill="none" height="176.6016" style="stroke:#000000;stroke-width:1.5;" width="1678.9766" x="10" y="879.0781"/><rect fill="none" height="177.6016" style="stroke:#000000;stroke-width:1.5;" width="1737.543" x="10" y="1171.0781"/><g class="participant-lifeline" data-entity-uid="part1" data-qualified-name="U" id="part1-lifeline"><g><title>Utilisateur .Browser.</title><rect fill="#000000" fill-opacity="0.00000" height="1244.7891" width="8" x="91.2114" y="120.8906"/><line style="stroke:#181818;stroke-width:0.5;stroke-dasharray:5,5;" x1="95" x2="95" y1="120.8906" y2="1365.6797"/></g></g><g class="participant-lifeline" data-entity-uid="part2" data-qualified-name="MVC" id="part2-lifeline"><g><title>Spring MVC</title><rect fill="#000000" fill-opacity="0.00000" height="1244.7891" width="8" x="501.9614" y="120.8906"/><line style="stroke:#181818;stroke-width:0.5;stroke-dasharray:5,5;" x1="505.4619" x2="505.4619" y1="120.8906" y2="1365.6797"/></g></g><g class="participant-lifeline" data-entity-uid="part3" data-qualified-name="SEC" id="part3-lifeline"><g><title>Spring Security</title><rect fill="#000000" fill-opacity="0.00000" height="1244.7891" width="8" x="711.0205" y="120.8906"/><line style="stroke:#181818;stroke-width:0.5;stroke-dasharray:5,5;" x1="714.4609" x2="714.4609" y1="120.8906" y2="1365.6797"/></g></g><g class="participant-lifeline" data-entity-uid="part4" data-qualified-name="UDS" id="part4-lifeline"><g><title>UserDetailsServiceImpl</title><rect fill="#000000" fill-opacity="0.00000" height="1244.7891" width="8" x="921.54" y="120.8906"/><line style="stroke:#181818;stroke-width:0.5;stroke-dasharray:5,5;" x1="925.1753" x2="925.1753" y1="120.8906" y2="1365.6797"/></g></g><g class="participant-lifeline" data-entity-uid="part5" data-qualified-name="DB" id="part5-lifeline"><g><title>PostgreSQL</title><rect fill="#000000" fill-opacity="0.00000" height="1244.7891" width="8" x="1220.6602" y="120.8906"/><line style="stroke:#181818;stroke-width:0.5;stroke-dasharray:5,5;" x1="1224.2837" x2="1224.2837" y1="120.8906" y2="1365.6797"/></g></g><g class="participant-lifeline" data-entity-uid="part6" data-qualified-name="ASH" id="part6-lifeline"><g><title>AuthSuccessHandler</title><rect fill="#000000" fill-opacity="0.00000" height="1244.7891" width="8" x="1353.1831" y="120.8906"/><line style="stroke:#181818;stroke-width:0.5;stroke-dasharray:5,5;" x1="1357.0366" x2="1357.0366" y1="120.8906" y2="1365.6797"/></g></g><g class="participant-lifeline" data-entity-uid="part7" data-qualified-name="VIEW" id="part7-lifeline"><g><title>Thymeleaf</title><rect fill="#000000" fill-opacity="0.00000" height="1244.7891" width="8" x="1679.9766" y="120.8906"/><line style="stroke:#181818;stroke-width:0.5;stroke-dasharray:5,5;" x1="1683.4102" x2="1683.4102" y1="120.8906" y2="1365.6797"/></g></g><g class="participant participant-head" data-entity-uid="part1" data-qualified-name="U" id="part1-head"><text fill="#000000" font-family="sans-serif" font-size="14" lengthAdjust="spacing" textLength="144.4229" x="20" y="117.5889">Utilisateur (Browser)</text><ellipse cx="95.2114" cy="53.0938" fill="#E2E2F0" rx="8" ry="8" style="stroke:#181818;stroke-width:0.5;"/><path d="M95.2114,61.0938 L95.2114,88.0938 M82.2114,69.0938 L108.2114,69.0938 M95.2114,88.0938 L82.2114,103.0938 M95.2114,88.0938 L108.2114,103.0938" fill="none" style="stroke:#181818;stroke-width:0.5;"/></g><g class="participant participant-tail" data-entity-uid="part1" data-qualified-name="U" id="part1-tail"><text fill="#000000" font-family="sans-serif" font-size="14" lengthAdjust="spacing" textLength="144.4229" x="20" y="1377.6748">Utilisateur (Browser)</text><ellipse cx="95.2114" cy="1389.4766" fill="#E2E2F0" rx="8" ry="8" style="stroke:#181818;stroke-width:0.5;"/><path d="M95.2114,1397.4766 L95.2114,1424.4766 M82.2114,1405.4766 L108.2114,1405.4766 M95.2114,1424.4766 L82.2114,1439.4766 M95.2114,1424.4766 L108.2114,1439.4766" fill="none" style="stroke:#181818;stroke-width:0.5;"/></g><g class="participant participant-head" data-entity-uid="part2" data-qualified-name="MVC" id="part2-head"><rect fill="#E2E2F0" height="46.5938" rx="2.5" ry="2.5" style="stroke:#181818;stroke-width:0.5;" width="276.999" x="367.4619" y="73.2969"/><text fill="#000000" font-family="sans-serif" font-size="14" lengthAdjust="spacing" textLength="81.0605" x="465.4312" y="93.292">Spring MVC</text><text fill="#000000" font-family="sans-serif" font-size="14" lengthAdjust="spacing" textLength="262.999" x="374.4619" y="109.5889">(AuthController/DashboardController)</text></g><g class="participant participant-tail" data-entity-uid="part2" data-qualified-name="MVC" id="part2-tail"><rect fill="#E2E2F0" height="46.5938" rx="2.5" ry="2.5" style="stroke:#181818;stroke-width:0.5;" width="276.999" x="367.4619" y="1364.6797"/><text fill="#000000" font-family="sans-serif" font-size="14" lengthAdjust="spacing" textLength="81.0605" x="465.4312" y="1384.6748">Spring MVC</text><text fill="#000000" font-family="sans-serif" font-size="14" lengthAdjust="spacing" textLength="262.999" x="374.4619" y="1400.9717">(AuthController/DashboardController)</text></g><g class="participant participant-head" data-entity-uid="part3" data-qualified-name="SEC" id="part3-head"><rect fill="#E2E2F0" height="46.5938" rx="2.5" ry="2.5" style="stroke:#181818;stroke-width:0.5;" width="121.1191" x="654.4609" y="73.2969"/><text fill="#000000" font-family="sans-serif" font-size="14" lengthAdjust="spacing" textLength="107.1191" x="661.4609" y="93.292">Spring Security</text><text fill="#000000" font-family="sans-serif" font-size="14" lengthAdjust="spacing" textLength="75.6807" x="677.1802" y="109.5889">FilterChain</text></g><g class="participant participant-tail" data-entity-uid="part3" data-qualified-name="SEC" id="part3-tail"><rect fill="#E2E2F0" height="46.5938" rx="2.5" ry="2.5" style="stroke:#181818;stroke-width:0.5;" width="121.1191" x="654.4609" y="1364.6797"/><text fill="#000000" font-family="sans-serif" font-size="14" lengthAdjust="spacing" textLength="107.1191" x="661.4609" y="1384.6748">Spring Security</text><text fill="#000000" font-family="sans-serif" font-size="14" lengthAdjust="spacing" textLength="75.6807" x="677.1802" y="1400.9717">FilterChain</text></g><g class="participant participant-head" data-entity-uid="part4" data-qualified-name="UDS" id="part4-head"><rect fill="#E2E2F0" height="30.2969" rx="2.5" ry="2.5" style="stroke:#181818;stroke-width:0.5;" width="176.7295" x="837.1753" y="89.5938"/><text fill="#000000" font-family="sans-serif" font-size="14" lengthAdjust="spacing" textLength="162.7295" x="844.1753" y="109.5889">UserDetailsServiceImpl</text></g><g class="participant participant-tail" data-entity-uid="part4" data-qualified-name="UDS" id="part4-tail"><rect fill="#E2E2F0" height="30.2969" rx="2.5" ry="2.5" style="stroke:#181818;stroke-width:0.5;" width="176.7295" x="837.1753" y="1364.6797"/><text fill="#000000" font-family="sans-serif" font-size="14" lengthAdjust="spacing" textLength="162.7295" x="844.1753" y="1384.6748">UserDetailsServiceImpl</text></g><g class="participant participant-head" data-entity-uid="part5" data-qualified-name="DB" id="part5-head"><text fill="#000000" font-family="sans-serif" font-size="14" lengthAdjust="spacing" textLength="80.7529" x="1181.2837" y="101.292">PostgreSQL</text><text fill="#000000" font-family="sans-serif" font-size="14" lengthAdjust="spacing" textLength="74.8125" x="1184.2539" y="117.5889">(app_user)</text><path d="M1206.6602,52.2969 C1206.6602,42.2969 1224.6602,42.2969 1224.6602,42.2969 C1224.6602,42.2969 1242.6602,42.2969 1242.6602,52.2969 L1242.6602,78.2969 C1242.6602,88.2969 1224.6602,88.2969 1224.6602,88.2969 C1224.6602,88.2969 1206.6602,88.2969 1206.6602,78.2969 L1206.6602,52.2969" fill="#E2E2F0" style="stroke:#181818;stroke-width:0.5;"/><path d="M1206.6602,52.2969 C1206.6602,62.2969 1224.6602,62.2969 1224.6602,62.2969 C1224.6602,62.2969 1242.6602,62.2969 1242.6602,52.2969" fill="none" style="stroke:#181818;stroke-width:0.5;"/></g><g class="participant participant-tail" data-entity-uid="part5" data-qualified-name="DB" id="part5-tail"><text fill="#000000" font-family="sans-serif" font-size="14" lengthAdjust="spacing" textLength="80.7529" x="1181.2837" y="1377.6748">PostgreSQL</text><text fill="#000000" font-family="sans-serif" font-size="14" lengthAdjust="spacing" textLength="74.8125" x="1184.2539" y="1393.9717">(app_user)</text><path d="M1206.6602,1407.2734 C1206.6602,1397.2734 1224.6602,1397.2734 1224.6602,1397.2734 C1224.6602,1397.2734 1242.6602,1397.2734 1242.6602,1407.2734 L1242.6602,1433.2734 C1242.6602,1443.2734 1224.6602,1443.2734 1224.6602,1443.2734 C1224.6602,1443.2734 1206.6602,1443.2734 1206.6602,1433.2734 L1206.6602,1407.2734" fill="#E2E2F0" style="stroke:#181818;stroke-width:0.5;"/><path d="M1206.6602,1407.2734 C1206.6602,1417.2734 1224.6602,1417.2734 1224.6602,1417.2734 C1224.6602,1417.2734 1242.6602,1417.2734 1242.6602,1407.2734" fill="none" style="stroke:#181818;stroke-width:0.5;"/></g><g class="participant participant-head" data-entity-uid="part6" data-qualified-name="ASH" id="part6-head"><rect fill="#E2E2F0" height="30.2969" rx="2.5" ry="2.5" style="stroke:#181818;stroke-width:0.5;" width="158.293" x="1278.0366" y="89.5938"/><text fill="#000000" font-family="sans-serif" font-size="14" lengthAdjust="spacing" textLength="144.293" x="1285.0366" y="109.5889">AuthSuccessHandler</text></g><g class="participant participant-tail" data-entity-uid="part6" data-qualified-name="ASH" id="part6-tail"><rect fill="#E2E2F0" height="30.2969" rx="2.5" ry="2.5" style="stroke:#181818;stroke-width:0.5;" width="158.293" x="1278.0366" y="1364.6797"/><text fill="#000000" font-family="sans-serif" font-size="14" lengthAdjust="spacing" textLength="144.293" x="1285.0366" y="1384.6748">AuthSuccessHandler</text></g><g class="participant participant-head" data-entity-uid="part7" data-qualified-name="VIEW" id="part7-head"><rect fill="#E2E2F0" height="46.5938" rx="2.5" ry="2.5" style="stroke:#181818;stroke-width:0.5;" width="107.1328" x="1630.4102" y="73.2969"/><text fill="#000000" font-family="sans-serif" font-size="14" lengthAdjust="spacing" textLength="73.9717" x="1646.9907" y="93.292">Thymeleaf</text><text fill="#000000" font-family="sans-serif" font-size="14" lengthAdjust="spacing" textLength="93.1328" x="1637.4102" y="109.5889">(templates/*)</text></g><g class="participant participant-tail" data-entity-uid="part7" data-qualified-name="VIEW" id="part7-tail"><rect fill="#E2E2F0" height="46.5938" rx="2.5" ry="2.5" style="stroke:#181818;stroke-width:0.5;" width="107.1328" x="1630.4102" y="1364.6797"/><text fill="#000000" font-family="sans-serif" font-size="14" lengthAdjust="spacing" textLength="73.9717" x="1646.9907" y="1384.6748">Thymeleaf</text><text fill="#000000" font-family="sans-serif" font-size="14" lengthAdjust="spacing" textLength="93.1328" x="1637.4102" y="1400.9717">(templates/*)</text></g><rect fill="#EEEEEE" height="3" style="stroke:#EEEEEE;stroke-width:1;" width="1757.543" x="0" y="151.457"/><line style="stroke:#000000;stroke-width:1;" x1="0" x2="1757.543" y1="151.457" y2="151.457"/><line style="stroke:#000000;stroke-width:1;" x1="0" x2="1757.543" y1="154.457" y2="154.457"/><rect fill="#EEEEEE" height="23.1328" style="stroke:#000000;stroke-width:2;" width="109.564" x="823.9895" y="140.8906"/><text fill="#000000" font-family="sans-serif" font-size="13" font-weight="bold" lengthAdjust="spacing" textLength="91.0381" x="829.9895" y="156.9575">Acc&#232;s public</text><g class="message" data-entity-1="part1" data-entity-2="part2" id="msg1"><polygon fill="#181818" points="493.9614,191.1563,503.9614,195.1563,493.9614,199.1563,497.9614,195.1563" style="stroke:#181818;stroke-width:1;"/><line style="stroke:#181818;stroke-width:1;" x1="95.2114" x2="499.9614" y1="195.1563" y2="195.1563"/><text fill="#000000" font-family="sans-serif" font-size="13" lengthAdjust="spacing" textLength="181.4922" x="102.2114" y="190.0903">GET / (home/catalog public)</text></g><g class="message" data-entity-1="part2" data-entity-2="part7" id="msg2"><polygon fill="#181818" points="1671.9766,220.2891,1681.9766,224.2891,1671.9766,228.2891,1675.9766,224.2891" style="stroke:#181818;stroke-width:1;"/><line style="stroke:#181818;stroke-width:1;" x1="505.9614" x2="1677.9766" y1="224.2891" y2="224.2891"/><text fill="#000000" font-family="sans-serif" font-size="13" lengthAdjust="spacing" textLength="305.792" x="512.9614" y="219.2231">render public/home.html + public/catalog.html</text></g><g class="message" data-entity-1="part7" data-entity-2="part1" id="msg3"><polygon fill="#181818" points="106.2114,249.4219,96.2114,253.4219,106.2114,257.4219,102.2114,253.4219" style="stroke:#181818;stroke-width:1;"/><line style="stroke:#181818;stroke-width:1;stroke-dasharray:2,2;" x1="100.2114" x2="1682.9766" y1="253.4219" y2="253.4219"/><text fill="#000000" font-family="sans-serif" font-size="13" lengthAdjust="spacing" textLength="36.1753" x="112.2114" y="248.356">HTML</text></g><rect fill="#EEEEEE" height="3" style="stroke:#EEEEEE;stroke-width:1;" width="1757.543" x="0" y="281.9883"/><line style="stroke:#000000;stroke-width:1;" x1="0" x2="1757.543" y1="281.9883" y2="281.9883"/><line style="stroke:#000000;stroke-width:1;" x1="0" x2="1757.543" y1="284.9883" y2="284.9883"/><rect fill="#EEEEEE" height="23.1328" style="stroke:#000000;stroke-width:2;" width="97.0908" x="830.2261" y="271.4219"/><text fill="#000000" font-family="sans-serif" font-size="13" font-weight="bold" lengthAdjust="spacing" textLength="78.5649" x="836.2261" y="287.4888">Inscription</text><g class="message" data-entity-1="part1" data-entity-2="part2" id="msg4"><polygon fill="#181818" points="493.9614,321.6875,503.9614,325.6875,493.9614,329.6875,497.9614,325.6875" style="stroke:#181818;stroke-width:1;"/><line style="stroke:#181818;stroke-width:1;" x1="95.2114" x2="499.9614" y1="325.6875" y2="325.6875"/><text fill="#000000" font-family="sans-serif" font-size="13" lengthAdjust="spacing" textLength="85.1602" x="102.2114" y="320.6216">GET /register</text></g><g class="message" data-entity-1="part2" data-entity-2="part7" id="msg5"><polygon fill="#181818" points="1671.9766,350.8203,1681.9766,354.8203,1671.9766,358.8203,1675.9766,354.8203" style="stroke:#181818;stroke-width:1;"/><line style="stroke:#181818;stroke-width:1;" x1="505.9614" x2="1677.9766" y1="354.8203" y2="354.8203"/><text fill="#000000" font-family="sans-serif" font-size="13" lengthAdjust="spacing" textLength="165.3945" x="512.9614" y="349.7544">render auth/register.html</text></g><g class="message" data-entity-1="part7" data-entity-2="part1" id="msg6"><polygon fill="#181818" points="106.2114,379.9531,96.2114,383.9531,106.2114,387.9531,102.2114,383.9531" style="stroke:#181818;stroke-width:1;"/><line style="stroke:#181818;stroke-width:1;stroke-dasharray:2,2;" x1="100.2114" x2="1682.9766" y1="383.9531" y2="383.9531"/><text fill="#000000" font-family="sans-serif" font-size="13" lengthAdjust="spacing" textLength="36.1753" x="112.2114" y="378.8872">HTML</text></g><g class="message" data-entity-1="part1" data-entity-2="part2" id="msg7"><polygon fill="#181818" points="493.9614,409.0859,503.9614,413.0859,493.9614,417.0859,497.9614,413.0859" style="stroke:#181818;stroke-width:1;"/><line style="stroke:#181818;stroke-width:1;" x1="95.2114" x2="499.9614" y1="413.0859" y2="413.0859"/><text fill="#000000" font-family="sans-serif" font-size="13" lengthAdjust="spacing" textLength="195.019" x="102.2114" y="408.02">POST /register (RegisterForm)</text></g><g class="message" data-entity-1="part2" data-entity-2="part3" id="msg8"><polygon fill="#181818" points="703.0205,438.2188,713.0205,442.2188,703.0205,446.2188,707.0205,442.2188" style="stroke:#181818;stroke-width:1;"/><line style="stroke:#181818;stroke-width:1;" x1="505.9614" x2="709.0205" y1="442.2188" y2="442.2188"/><text fill="#000000" font-family="sans-serif" font-size="13" lengthAdjust="spacing" textLength="105.1934" x="512.9614" y="437.1528">validate + CSRF</text></g><g class="message" data-entity-1="part3" data-entity-2="part2" id="msg9"><polygon fill="#181818" points="516.9614,467.3516,506.9614,471.3516,516.9614,475.3516,512.9614,471.3516" style="stroke:#181818;stroke-width:1;"/><line style="stroke:#181818;stroke-width:1;" x1="510.9614" x2="714.0205" y1="471.3516" y2="471.3516"/><text fill="#000000" font-family="sans-serif" font-size="13" lengthAdjust="spacing" textLength="15.4819" x="522.9614" y="466.2856">ok</text></g><g class="message" data-entity-1="part2" data-entity-2="part5" id="msg10"><polygon fill="#181818" points="1212.6602,496.4844,1222.6602,500.4844,1212.6602,504.4844,1216.6602,500.4844" style="stroke:#181818;stroke-width:1;"/><line style="stroke:#181818;stroke-width:1;" x1="505.9614" x2="1218.6602" y1="500.4844" y2="500.4844"/><text fill="#000000" font-family="sans-serif" font-size="13" lengthAdjust="spacing" textLength="396.3604" x="512.9614" y="495.4185">INSERT app_user (role=ETUDIANT, status=ACTIVE/PENDING)</text></g><g class="message" data-entity-1="part5" data-entity-2="part2" id="msg11"><polygon fill="#181818" points="516.9614,525.6172,506.9614,529.6172,516.9614,533.6172,512.9614,529.6172" style="stroke:#181818;stroke-width:1;"/><line style="stroke:#181818;stroke-width:1;stroke-dasharray:2,2;" x1="510.9614" x2="1223.6602" y1="529.6172" y2="529.6172"/><text fill="#000000" font-family="sans-serif" font-size="13" lengthAdjust="spacing" textLength="40.4409" x="522.9614" y="524.5513">userId</text></g><g class="message" data-entity-1="part2" data-entity-2="part7" id="msg12"><polygon fill="#181818" points="1671.9766,554.75,1681.9766,558.75,1671.9766,562.75,1675.9766,558.75" style="stroke:#181818;stroke-width:1;"/><line style="stroke:#181818;stroke-width:1;" x1="505.9614" x2="1677.9766" y1="558.75" y2="558.75"/><text fill="#000000" font-family="sans-serif" font-size="13" lengthAdjust="spacing" textLength="191.4009" x="512.9614" y="553.6841">redirect /login (flash success)</text></g><g class="message" data-entity-1="part7" data-entity-2="part1" id="msg13"><polygon fill="#181818" points="106.2114,583.8828,96.2114,587.8828,106.2114,591.8828,102.2114,587.8828" style="stroke:#181818;stroke-width:1;"/><line style="stroke:#181818;stroke-width:1;stroke-dasharray:2,2;" x1="100.2114" x2="1682.9766" y1="587.8828" y2="587.8828"/><text fill="#000000" font-family="sans-serif" font-size="13" lengthAdjust="spacing" textLength="24.813" x="112.2114" y="582.8169">302</text></g><rect fill="#EEEEEE" height="3" style="stroke:#EEEEEE;stroke-width:1;" width="1757.543" x="0" y="616.4492"/><line style="stroke:#000000;stroke-width:1;" x1="0" x2="1757.543" y1="616.4492" y2="616.4492"/><line style="stroke:#000000;stroke-width:1;" x1="0" x2="1757.543" y1="619.4492" y2="619.4492"/><rect fill="#EEEEEE" height="23.1328" style="stroke:#000000;stroke-width:2;" width="95.3516" x="831.0957" y="605.8828"/><text fill="#000000" font-family="sans-serif" font-size="13" font-weight="bold" lengthAdjust="spacing" textLength="76.8257" x="837.0957" y="621.9497">Connexion</text><g class="message" data-entity-1="part1" data-entity-2="part2" id="msg14"><polygon fill="#181818" points="493.9614,656.1484,503.9614,660.1484,493.9614,664.1484,497.9614,660.1484" style="stroke:#181818;stroke-width:1;"/><line style="stroke:#181818;stroke-width:1;" x1="95.2114" x2="499.9614" y1="660.1484" y2="660.1484"/><text fill="#000000" font-family="sans-serif" font-size="13" lengthAdjust="spacing" textLength="66.4092" x="102.2114" y="655.0825">GET /login</text></g><g class="message" data-entity-1="part2" data-entity-2="part7" id="msg15"><polygon fill="#181818" points="1671.9766,685.2813,1681.9766,689.2813,1671.9766,693.2813,1675.9766,689.2813" style="stroke:#181818;stroke-width:1;"/><line style="stroke:#181818;stroke-width:1;" x1="505.9614" x2="1677.9766" y1="689.2813" y2="689.2813"/><text fill="#000000" font-family="sans-serif" font-size="13" lengthAdjust="spacing" textLength="146.6436" x="512.9614" y="684.2153">render auth/login.html</text></g><g class="message" data-entity-1="part7" data-entity-2="part1" id="msg16"><polygon fill="#181818" points="106.2114,714.4141,96.2114,718.4141,106.2114,722.4141,102.2114,718.4141" style="stroke:#181818;stroke-width:1;"/><line style="stroke:#181818;stroke-width:1;stroke-dasharray:2,2;" x1="100.2114" x2="1682.9766" y1="718.4141" y2="718.4141"/><text fill="#000000" font-family="sans-serif" font-size="13" lengthAdjust="spacing" textLength="36.1753" x="112.2114" y="713.3481">HTML</text></g><g class="message" data-entity-1="part1" data-entity-2="part3" id="msg17"><polygon fill="#181818" points="703.0205,743.5469,713.0205,747.5469,703.0205,751.5469,707.0205,747.5469" style="stroke:#181818;stroke-width:1;"/><line style="stroke:#181818;stroke-width:1;" x1="95.2114" x2="709.0205" y1="747.5469" y2="747.5469"/><text fill="#000000" font-family="sans-serif" font-size="13" lengthAdjust="spacing" textLength="197.4121" x="102.2114" y="742.481">POST /login (email+password)</text></g><g class="message" data-entity-1="part3" data-entity-2="part4" id="msg18"><polygon fill="#181818" points="913.54,772.6797,923.54,776.6797,913.54,780.6797,917.54,776.6797" style="stroke:#181818;stroke-width:1;"/><line style="stroke:#181818;stroke-width:1;" x1="715.0205" x2="919.54" y1="776.6797" y2="776.6797"/><text fill="#000000" font-family="sans-serif" font-size="13" lengthAdjust="spacing" textLength="186.5195" x="722.0205" y="771.6138">loadUserByUsername(email)</text></g><g class="message" data-entity-1="part4" data-entity-2="part5" id="msg19"><polygon fill="#181818" points="1212.6602,801.8125,1222.6602,805.8125,1212.6602,809.8125,1216.6602,805.8125" style="stroke:#181818;stroke-width:1;"/><line style="stroke:#181818;stroke-width:1;" x1="925.54" x2="1218.6602" y1="805.8125" y2="805.8125"/><text fill="#000000" font-family="sans-serif" font-size="13" lengthAdjust="spacing" textLength="275.1201" x="932.54" y="800.7466">SELECT * FROM app_user WHERE email=?</text></g><g class="message" data-entity-1="part5" data-entity-2="part4" id="msg20"><polygon fill="#181818" points="936.54,830.9453,926.54,834.9453,936.54,838.9453,932.54,834.9453" style="stroke:#181818;stroke-width:1;"/><line style="stroke:#181818;stroke-width:1;stroke-dasharray:2,2;" x1="930.54" x2="1223.6602" y1="834.9453" y2="834.9453"/><text fill="#000000" font-family="sans-serif" font-size="13" lengthAdjust="spacing" textLength="139.5723" x="942.54" y="829.8794">User + roles + status</text></g><g class="message" data-entity-1="part4" data-entity-2="part3" id="msg21"><polygon fill="#181818" points="726.0205,860.0781,716.0205,864.0781,726.0205,868.0781,722.0205,864.0781" style="stroke:#181818;stroke-width:1;"/><line style="stroke:#181818;stroke-width:1;stroke-dasharray:2,2;" x1="720.0205" x2="924.54" y1="864.0781" y2="864.0781"/><text fill="#000000" font-family="sans-serif" font-size="13" lengthAdjust="spacing" textLength="74.6992" x="732.0205" y="859.0122">UserDetails</text></g><path d="M10,879.0781 L74.4429,879.0781 L74.4429,886.2109 L64.4429,896.2109 L10,896.2109 L10,879.0781" fill="#EEEEEE" style="stroke:#000000;stroke-width:1.5;"/><rect fill="none" height="176.6016" style="stroke:#000000;stroke-width:1.5;" width="1678.9766" x="10" y="879.0781"/><text fill="#000000" font-family="sans-serif" font-size="13" font-weight="bold" lengthAdjust="spacing" textLength="19.4429" x="25" y="892.145">alt</text><text fill="#000000" font-family="sans-serif" font-size="11" font-weight="bold" lengthAdjust="spacing" textLength="256.835" x="89.4429" y="891.2886">[Credentials invalid OR status != ACTIVE]</text><g class="message" data-entity-1="part3" data-entity-2="part1" id="msg22"><polygon fill="#181818" points="106.2114,913.3438,96.2114,917.3438,106.2114,921.3438,102.2114,917.3438" style="stroke:#181818;stroke-width:1;"/><line style="stroke:#181818;stroke-width:1;stroke-dasharray:2,2;" x1="100.2114" x2="714.0205" y1="917.3438" y2="917.3438"/><text fill="#000000" font-family="sans-serif" font-size="13" lengthAdjust="spacing" textLength="103.8794" x="112.2114" y="912.2778">302 /login?error</text></g><line style="stroke:#000000;stroke-width:1;stroke-dasharray:2,2;" x1="10" x2="1688.9766" y1="926.3438" y2="926.3438"/><text fill="#000000" font-family="sans-serif" font-size="11" font-weight="bold" lengthAdjust="spacing" textLength="61.1929" x="15" y="936.5542">[Auth OK]</text><g class="message" data-entity-1="part3" data-entity-2="part6" id="msg23"><polygon fill="#181818" points="1345.1831,957.2813,1355.1831,961.2813,1345.1831,965.2813,1349.1831,961.2813" style="stroke:#181818;stroke-width:1;"/><line style="stroke:#181818;stroke-width:1;" x1="715.0205" x2="1351.1831" y1="961.2813" y2="961.2813"/><text fill="#000000" font-family="sans-serif" font-size="13" lengthAdjust="spacing" textLength="203.6392" x="722.0205" y="956.2153">onAuthenticationSuccess(auth)</text></g><g class="message" data-entity-1="part6" data-entity-2="part6" id="msg24"><line style="stroke:#181818;stroke-width:1;" x1="1357.1831" x2="1399.1831" y1="1005.5469" y2="1005.5469"/><line style="stroke:#181818;stroke-width:1;" x1="1399.1831" x2="1399.1831" y1="1005.5469" y2="1018.5469"/><line style="stroke:#181818;stroke-width:1;" x1="1358.1831" x2="1399.1831" y1="1018.5469" y2="1018.5469"/><polygon fill="#181818" points="1368.1831,1014.5469,1358.1831,1018.5469,1368.1831,1022.5469,1364.1831,1018.5469" style="stroke:#181818;stroke-width:1;"/><text fill="#000000" font-family="sans-serif" font-size="13" lengthAdjust="spacing" textLength="160.2085" x="1364.1831" y="985.3481">determine target by role</text><text fill="#000000" font-family="sans-serif" font-size="13" lengthAdjust="spacing" textLength="312.7935" x="1364.1831" y="1000.481">ADMIN/PROF/ETUDIANT/INSTITUTION_MANAGER</text></g><g class="message" data-entity-1="part6" data-entity-2="part1" id="msg25"><polygon fill="#181818" points="106.2114,1043.6797,96.2114,1047.6797,106.2114,1051.6797,102.2114,1047.6797" style="stroke:#181818;stroke-width:1;"/><line style="stroke:#181818;stroke-width:1;stroke-dasharray:2,2;" x1="100.2114" x2="1356.1831" y1="1047.6797" y2="1047.6797"/><text fill="#000000" font-family="sans-serif" font-size="13" lengthAdjust="spacing" textLength="241.7314" x="112.2114" y="1042.6138">302 /admin|/prof|/student|/institution</text></g><rect fill="#EEEEEE" height="3" style="stroke:#EEEEEE;stroke-width:1;" width="1757.543" x="0" y="1083.2461"/><line style="stroke:#000000;stroke-width:1;" x1="0" x2="1757.543" y1="1083.2461" y2="1083.2461"/><line style="stroke:#000000;stroke-width:1;" x1="0" x2="1757.543" y1="1086.2461" y2="1086.2461"/><rect fill="#EEEEEE" height="23.1328" style="stroke:#000000;stroke-width:2;" width="180.2832" x="788.6299" y="1072.6797"/><text fill="#000000" font-family="sans-serif" font-size="13" font-weight="bold" lengthAdjust="spacing" textLength="161.7573" x="794.6299" y="1088.7466">Dashboard role-based</text><g class="message" data-entity-1="part1" data-entity-2="part2" id="msg26"><polygon fill="#181818" points="493.9614,1122.9453,503.9614,1126.9453,493.9614,1130.9453,497.9614,1126.9453" style="stroke:#181818;stroke-width:1;"/><line style="stroke:#181818;stroke-width:1;" x1="95.2114" x2="499.9614" y1="1126.9453" y2="1126.9453"/><text fill="#000000" font-family="sans-serif" font-size="13" lengthAdjust="spacing" textLength="386.75" x="102.2114" y="1121.8794">GET /dashboard (or /admin/dashboard, /prof/dashboard, ...)</text></g><g class="message" data-entity-1="part2" data-entity-2="part3" id="msg27"><polygon fill="#181818" points="703.0205,1152.0781,713.0205,1156.0781,703.0205,1160.0781,707.0205,1156.0781" style="stroke:#181818;stroke-width:1;"/><line style="stroke:#181818;stroke-width:1;" x1="505.9614" x2="709.0205" y1="1156.0781" y2="1156.0781"/><text fill="#000000" font-family="sans-serif" font-size="13" lengthAdjust="spacing" textLength="151.1377" x="512.9614" y="1151.0122">check role access rules</text></g><path d="M10,1171.0781 L74.4429,1171.0781 L74.4429,1178.2109 L64.4429,1188.2109 L10,1188.2109 L10,1171.0781" fill="#EEEEEE" style="stroke:#000000;stroke-width:1.5;"/><rect fill="none" height="177.6016" style="stroke:#000000;stroke-width:1.5;" width="1737.543" x="10" y="1171.0781"/><text fill="#000000" font-family="sans-serif" font-size="13" font-weight="bold" lengthAdjust="spacing" textLength="19.4429" x="25" y="1184.145">alt</text><text fill="#000000" font-family="sans-serif" font-size="11" font-weight="bold" lengthAdjust="spacing" textLength="92.5493" x="89.4429" y="1183.2886">[unauthorized]</text><g class="message" data-entity-1="part3" data-entity-2="part1" id="msg28"><polygon fill="#181818" points="106.2114,1205.3438,96.2114,1209.3438,106.2114,1213.3438,102.2114,1209.3438" style="stroke:#181818;stroke-width:1;"/><line style="stroke:#181818;stroke-width:1;stroke-dasharray:2,2;" x1="100.2114" x2="714.0205" y1="1209.3438" y2="1209.3438"/><text fill="#000000" font-family="sans-serif" font-size="13" lengthAdjust="spacing" textLength="134.0117" x="112.2114" y="1204.2778">403 (error/403.html)</text></g><line style="stroke:#000000;stroke-width:1;stroke-dasharray:2,2;" x1="10" x2="1747.543" y1="1218.3438" y2="1218.3438"/><text fill="#000000" font-family="sans-serif" font-size="11" font-weight="bold" lengthAdjust="spacing" textLength="76.8872" x="15" y="1228.5542">[authorized]</text><g class="message" data-entity-1="part2" data-entity-2="part5" id="msg29"><polygon fill="#181818" points="1212.6602,1249.2813,1222.6602,1253.2813,1212.6602,1257.2813,1216.6602,1253.2813" style="stroke:#181818;stroke-width:1;"/><line style="stroke:#181818;stroke-width:1;" x1="505.9614" x2="1218.6602" y1="1253.2813" y2="1253.2813"/><text fill="#000000" font-family="sans-serif" font-size="13" lengthAdjust="spacing" textLength="350.1621" x="512.9614" y="1248.2153">load aggregates (counts, lists, upcoming exams, etc.)</text></g><g class="message" data-entity-1="part5" data-entity-2="part2" id="msg30"><polygon fill="#181818" points="516.9614,1278.4141,506.9614,1282.4141,516.9614,1286.4141,512.9614,1282.4141" style="stroke:#181818;stroke-width:1;"/><line style="stroke:#181818;stroke-width:1;stroke-dasharray:2,2;" x1="510.9614" x2="1223.6602" y1="1282.4141" y2="1282.4141"/><text fill="#000000" font-family="sans-serif" font-size="13" lengthAdjust="spacing" textLength="29.2817" x="522.9614" y="1277.3481">data</text></g><g class="message" data-entity-1="part2" data-entity-2="part7" id="msg31"><polygon fill="#181818" points="1671.9766,1307.5469,1681.9766,1311.5469,1671.9766,1315.5469,1675.9766,1311.5469" style="stroke:#181818;stroke-width:1;"/><line style="stroke:#181818;stroke-width:1;" x1="505.9614" x2="1677.9766" y1="1311.5469" y2="1311.5469"/><text fill="#000000" font-family="sans-serif" font-size="13" lengthAdjust="spacing" textLength="270.9624" x="512.9614" y="1306.481">render templates/&lt;role&gt;/dashboard.html</text></g><g class="message" data-entity-1="part7" data-entity-2="part1" id="msg32"><polygon fill="#181818" points="106.2114,1336.6797,96.2114,1340.6797,106.2114,1344.6797,102.2114,1340.6797" style="stroke:#181818;stroke-width:1;"/><line style="stroke:#181818;stroke-width:1;stroke-dasharray:2,2;" x1="100.2114" x2="1682.9766" y1="1340.6797" y2="1340.6797"/><text fill="#000000" font-family="sans-serif" font-size="13" lengthAdjust="spacing" textLength="36.1753" x="112.2114" y="1335.6138">HTML</text></g><!--SRC=[VLNTSjCw4BxtKoozIg29cGDN6L8cFqxheKcAxPIRpZ2glKqqo997ae4oVI0UuBm1BtPMifqVAEScjgLllztzzYUMMu4G5VL2wIt202QrtQ6q_87dp78buHKaM72DkV-QCxExLqmNq2jhOVb0__fNeEa70Skjqd2siLnmmopM6dfJhRuPrFqpO0OsGSMqvJclcBHmbbQQooqiRsTtikUypfIqMWc1EjnxEPmr78H-bYN5lDRSFjx91HSMzMp7kFGMQVIRnOO2cgDbN9WKzLUUOrnMeebmdWO5i-oU6OIp6sNiLcFwyPe2P5NrkTwdCf-UShhmqphFqPWh9WiAryCcwTKfBjizbYYGFH2ZHN9BEfdmPKDw6qUVWc0yXacU__ffeAhl1SzXF0usCBXmgO_WCieWXDvEbHXIVPXGsnRN3mZWS8vc11fbWRgz2nr-kBEbe6gsHwsrFmsS3Gp8U3E2gsnvxSE8fSarhtpP_mn2uvORKlfPjupqs2F-vk90UBDEZnYXbxHlr9FbFYygv0Y-Ci6fGaXvpD9a4T3XdaLzwQ3pwGZYLHeb6NHrWnwr4OwZR3EF9wli78nbjZRZoIoBRwFm9bhDuzLbFvXFVP2UqDd5nUy9DhC08Od79VGU1FKgcARu_PCqtxp-nmj9JIpn-_CoUfQ_Q-Yl_rT0BqiZO1iHbjJRhofcp3UbYtwd4JNt28HYXHk0wQFxbQp41juFwBgJBeskera6Bs6Hh9S71JzTHKa47Zv-tmdbMHqNLSGfREZPIDimTX4UJHsj2c5XHagwFSE40IvzNM6TjBRmWgR0LoO0yF7l5MtJV8zQAnsWe4brqmVh3ntqmiqTjOFiLbcpoDhvx3bT-uGbq1vR87LRoIM2PRG6BTm_-cpkv6I-Z5VXJR9UX5tlXDHQMPnjidYz-hoSh2QNKTBn7ON92Y9y2Ykj7fv2OskNxLF8fR7SrYwWWEhi- -EmKvtFWTi-nJEjKXnMBotQXlzmU0xUrV71S3WydPvyX_aNxmIO5mDqJINpzQYb4qPf_WEBKz7Vldv3JUNa3kdLDsE_4Vx4ucZsN9S1szBotBe51xrSrTAQSw1_1lUegroLRctZTrRIDzfyw4foF7nk3nzOJoRZi3dVkLmk3ZatamBmnwoGuNy0]--></g></svg>