<svg xmlns="http://www.w3.org/2000/svg" xmlns:xlink="http://www.w3.org/1999/xlink" contentStyleType="text/css" data-diagram-type="SEQUENCE" height="2128px" preserveAspectRatio="none" style="width:2022px;height:2128px;background:#FFFFFF;" version="1.1" viewBox="0 0 2022 2128" width="2022px" zoomAndPan="magnify"><title>EduForge - Examens: Cr&#233;ation (Prof) -&gt; Tentative (&#201;tudiant) -&gt; Notation hybride -&gt; Certificat</title><defs/><g><text fill="#000000" font-family="sans-serif" font-size="14" font-weight="bold" lengthAdjust="spacing" textLength="738.5547" x="638.2107" y="27.9951">EduForge - Examens: Cr&#233;ation (Prof) -&gt; Tentative (&#201;tudiant) -&gt; Notation hybride -&gt; Certificat</text><rect fill="none" height="237.8672" style="stroke:#000000;stroke-width:1.5;" width="1183.1958" x="749.8086" y="417.5469"/><rect fill="none" height="75.3984" style="stroke:#000000;stroke-width:1.5;" width="1163.1958" x="759.8086" y="499.9453"/><rect fill="none" height="280" style="stroke:#000000;stroke-width:1.5;" width="1183.1958" x="749.8086" y="1280.0703"/><rect fill="none" height="248.8672" style="stroke:#000000;stroke-width:1.5;" width="1163.1958" x="759.8086" y="1304.2031"/><rect fill="none" height="133.6641" style="stroke:#000000;stroke-width:1.5;" width="1163.1958" x="759.8086" y="1762.8672"/><g class="participant-lifeline" data-entity-uid="part1" data-qualified-name="PROF" id="part1-lifeline"><g><title>Professeur</title><rect fill="#000000" fill-opacity="0.00000" height="1847.4453" width="8" x="41.0679" y="153.4844"/><line style="stroke:#181818;stroke-width:0.5;stroke-dasharray:5,5;" x1="45" x2="45" y1="153.4844" y2="2000.9297"/></g></g><g class="participant-lifeline" data-entity-uid="part2" data-qualified-name="STU" id="part2-lifeline"><g><title>.tudiant</title><rect fill="#000000" fill-opacity="0.00000" height="1847.4453" width="8" x="123.5986" y="153.4844"/><line style="stroke:#181818;stroke-width:0.5;stroke-dasharray:5,5;" x1="127.1357" x2="127.1357" y1="153.4844" y2="2000.9297"/></g></g><g class="participant-lifeline" data-entity-uid="part3" data-qualified-name="PEC" id="part3-lifeline"><g><title>ProfExamController</title><rect fill="#000000" fill-opacity="0.00000" height="1847.4453" width="8" x="386.3037" y="153.4844"/><line style="stroke:#181818;stroke-width:0.5;stroke-dasharray:5,5;" x1="390.1973" x2="390.1973" y1="153.4844" y2="2000.9297"/></g></g><g class="participant-lifeline" data-entity-uid="part4" data-qualified-name="SEC" id="part4-lifeline"><g><title>StudentExamController</title><rect fill="#000000" fill-opacity="0.00000" height="1847.4453" width="8" x="560.2261" y="153.4844"/><line style="stroke:#181818;stroke-width:0.5;stroke-dasharray:5,5;" x1="563.4102" x2="563.4102" y1="153.4844" y2="2000.9297"/></g></g><g class="participant-lifeline" data-entity-uid="part5" data-qualified-name="ES" id="part5-lifeline"><g><title>ExamService</title><rect fill="#000000" fill-opacity="0.00000" height="1847.4453" width="8" x="818.353" y="153.4844"/><line style="stroke:#181818;stroke-width:0.5;stroke-dasharray:5,5;" x1="821.8086" x2="821.8086" y1="153.4844" y2="2000.9297"/></g></g><g class="participant-lifeline" data-entity-uid="part6" data-qualified-name="GAI" id="part6-lifeline"><g><title>GeminiAiGateway</title><rect fill="#000000" fill-opacity="0.00000" height="1847.4453" width="8" x="1212.7705" y="153.4844"/><line style="stroke:#181818;stroke-width:0.5;stroke-dasharray:5,5;" x1="1216.2388" x2="1216.2388" y1="153.4844" y2="2000.9297"/></g></g><g class="participant-lifeline" data-entity-uid="part7" data-qualified-name="NS" id="part7-lifeline"><g><title>NotificationService</title><rect fill="#000000" fill-opacity="0.00000" height="1847.4453" width="8" x="1365.3374" y="153.4844"/><line style="stroke:#181818;stroke-width:0.5;stroke-dasharray:5,5;" x1="1369.3022" x2="1369.3022" y1="153.4844" y2="2000.9297"/></g></g><g class="participant-lifeline" data-entity-uid="part8" data-qualified-name="CERT" id="part8-lifeline"><g><title>CertificateService</title><rect fill="#000000" fill-opacity="0.00000" height="1847.4453" width="8" x="1517.6035" y="153.4844"/><line style="stroke:#181818;stroke-width:0.5;stroke-dasharray:5,5;" x1="1521.3726" x2="1521.3726" y1="153.4844" y2="2000.9297"/></g></g><g class="participant-lifeline" data-entity-uid="part9" data-qualified-name="DB" id="part9-lifeline"><g><title>PostgreSQL</title><rect fill="#000000" fill-opacity="0.00000" height="1847.4453" width="8" x="1799.8389" y="153.4844"/><line style="stroke:#181818;stroke-width:0.5;stroke-dasharray:5,5;" x1="1803.6733" x2="1803.6733" y1="153.4844" y2="2000.9297"/></g></g><g class="participant-lifeline" data-entity-uid="part10" data-qualified-name="VIEW" id="part10-lifeline"><g><title>Thymeleaf</title><rect fill="#000000" fill-opacity="0.00000" height="1847.4453" width="8" x="1962.9902" y="153.4844"/><line style="stroke:#181818;stroke-width:0.5;stroke-dasharray:5,5;" x1="1966.0044" x2="1966.0044" y1="153.4844" y2="2000.9297"/></g></g><g class="participant participant-head" data-entity-uid="part1" data-qualified-name="PROF" id="part1-head"><text fill="#000000" font-family="sans-serif" font-size="14" lengthAdjust="spacing" textLength="74.1357" x="5" y="150.1826">Professeur</text><ellipse cx="45.0679" cy="85.6875" fill="#E2E2F0" rx="8" ry="8" style="stroke:#181818;stroke-width:0.5;"/><path d="M45.0679,93.6875 L45.0679,120.6875 M32.0679,101.6875 L58.0679,101.6875 M45.0679,120.6875 L32.0679,135.6875 M45.0679,120.6875 L58.0679,135.6875" fill="none" style="stroke:#181818;stroke-width:0.5;"/></g><g class="participant participant-tail" data-entity-uid="part1" data-qualified-name="PROF" id="part1-tail"><text fill="#000000" font-family="sans-serif" font-size="14" lengthAdjust="spacing" textLength="74.1357" x="5" y="2012.9248">Professeur</text><ellipse cx="45.0679" cy="2024.7266" fill="#E2E2F0" rx="8" ry="8" style="stroke:#181818;stroke-width:0.5;"/><path d="M45.0679,2032.7266 L45.0679,2059.7266 M32.0679,2040.7266 L58.0679,2040.7266 M45.0679,2059.7266 L32.0679,2074.7266 M45.0679,2059.7266 L58.0679,2074.7266" fill="none" style="stroke:#181818;stroke-width:0.5;"/></g><g class="participant participant-head" data-entity-uid="part2" data-qualified-name="STU" id="part2-head"><text fill="#000000" font-family="sans-serif" font-size="14" lengthAdjust="spacing" textLength="58.9258" x="95.1357" y="150.1826">&#201;tudiant</text><ellipse cx="127.5986" cy="85.6875" fill="#E2E2F0" rx="8" ry="8" style="stroke:#181818;stroke-width:0.5;"/><path d="M127.5986,93.6875 L127.5986,120.6875 M114.5986,101.6875 L140.5986,101.6875 M127.5986,120.6875 L114.5986,135.6875 M127.5986,120.6875 L140.5986,135.6875" fill="none" style="stroke:#181818;stroke-width:0.5;"/></g><g class="participant participant-tail" data-entity-uid="part2" data-qualified-name="STU" id="part2-tail"><text fill="#000000" font-family="sans-serif" font-size="14" lengthAdjust="spacing" textLength="58.9258" x="95.1357" y="2012.9248">&#201;tudiant</text><ellipse cx="127.5986" cy="2024.7266" fill="#E2E2F0" rx="8" ry="8" style="stroke:#181818;stroke-width:0.5;"/><path d="M127.5986,2032.7266 L127.5986,2059.7266 M114.5986,2040.7266 L140.5986,2040.7266 M127.5986,2059.7266 L114.5986,2074.7266 M127.5986,2059.7266 L140.5986,2074.7266" fill="none" style="stroke:#181818;stroke-width:0.5;"/></g><g class="participant participant-head" data-entity-uid="part3" data-qualified-name="PEC" id="part3-head"><rect fill="#E2E2F0" height="30.2969" rx="2.5" ry="2.5" style="stroke:#181818;stroke-width:0.5;" width="150.2129" x="315.1973" y="122.1875"/><text fill="#000000" font-family="sans-serif" font-size="14" lengthAdjust="spacing" textLength="136.2129" x="322.1973" y="142.1826">ProfExamController</text></g><g class="participant participant-tail" data-entity-uid="part3" data-qualified-name="PEC" id="part3-tail"><rect fill="#E2E2F0" height="30.2969" rx="2.5" ry="2.5" style="stroke:#181818;stroke-width:0.5;" width="150.2129" x="315.1973" y="1999.9297"/><text fill="#000000" font-family="sans-serif" font-size="14" lengthAdjust="spacing" textLength="136.2129" x="322.1973" y="2019.9248">ProfExamController</text></g><g class="participant participant-head" data-entity-uid="part4" data-qualified-name="SEC" id="part4-head"><rect fill="#E2E2F0" height="30.2969" rx="2.5" ry="2.5" style="stroke:#181818;stroke-width:0.5;" width="177.6318" x="475.4102" y="122.1875"/><text fill="#000000" font-family="sans-serif" font-size="14" lengthAdjust="spacing" textLength="163.6318" x="482.4102" y="142.1826">StudentExamController</text></g><g class="participant participant-tail" data-entity-uid="part4" data-qualified-name="SEC" id="part4-tail"><rect fill="#E2E2F0" height="30.2969" rx="2.5" ry="2.5" style="stroke:#181818;stroke-width:0.5;" width="177.6318" x="475.4102" y="1999.9297"/><text fill="#000000" font-family="sans-serif" font-size="14" lengthAdjust="spacing" textLength="163.6318" x="482.4102" y="2019.9248">StudentExamController</text></g><g class="participant participant-head" data-entity-uid="part5" data-qualified-name="ES" id="part5-head"><rect fill="#E2E2F0" height="30.2969" rx="2.5" ry="2.5" style="stroke:#181818;stroke-width:0.5;" width="105.0889" x="769.8086" y="122.1875"/><text fill="#000000" font-family="sans-serif" font-size="14" lengthAdjust="spacing" textLength="91.0889" x="776.8086" y="142.1826">ExamService</text></g><g class="participant participant-tail" data-entity-uid="part5" data-qualified-name="ES" id="part5-tail"><rect fill="#E2E2F0" height="30.2969" rx="2.5" ry="2.5" style="stroke:#181818;stroke-width:0.5;" width="105.0889" x="769.8086" y="1999.9297"/><text fill="#000000" font-family="sans-serif" font-size="14" lengthAdjust="spacing" textLength="91.0889" x="776.8086" y="2019.9248">ExamService</text></g><g class="participant participant-head" data-entity-uid="part6" data-qualified-name="GAI" id="part6-head"><rect fill="#E2E2F0" height="30.2969" rx="2.5" ry="2.5" style="stroke:#181818;stroke-width:0.5;" width="139.0635" x="1147.2388" y="122.1875"/><text fill="#000000" font-family="sans-serif" font-size="14" lengthAdjust="spacing" textLength="125.0635" x="1154.2388" y="142.1826">GeminiAiGateway</text></g><g class="participant participant-tail" data-entity-uid="part6" data-qualified-name="GAI" id="part6-tail"><rect fill="#E2E2F0" height="30.2969" rx="2.5" ry="2.5" style="stroke:#181818;stroke-width:0.5;" width="139.0635" x="1147.2388" y="1999.9297"/><text fill="#000000" font-family="sans-serif" font-size="14" lengthAdjust="spacing" textLength="125.0635" x="1154.2388" y="2019.9248">GeminiAiGateway</text></g><g class="participant participant-head" data-entity-uid="part7" data-qualified-name="NS" id="part7-head"><rect fill="#E2E2F0" height="30.2969" rx="2.5" ry="2.5" style="stroke:#181818;stroke-width:0.5;" width="146.0703" x="1296.3022" y="122.1875"/><text fill="#000000" font-family="sans-serif" font-size="14" lengthAdjust="spacing" textLength="132.0703" x="1303.3022" y="142.1826">NotificationService</text></g><g class="participant participant-tail" data-entity-uid="part7" data-qualified-name="NS" id="part7-tail"><rect fill="#E2E2F0" height="30.2969" rx="2.5" ry="2.5" style="stroke:#181818;stroke-width:0.5;" width="146.0703" x="1296.3022" y="1999.9297"/><text fill="#000000" font-family="sans-serif" font-size="14" lengthAdjust="spacing" textLength="132.0703" x="1303.3022" y="2019.9248">NotificationService</text></g><g class="participant participant-head" data-entity-uid="part8" data-qualified-name="CERT" id="part8-head"><rect fill="#E2E2F0" height="30.2969" rx="2.5" ry="2.5" style="stroke:#181818;stroke-width:0.5;" width="138.4619" x="1452.3726" y="122.1875"/><text fill="#000000" font-family="sans-serif" font-size="14" lengthAdjust="spacing" textLength="124.4619" x="1459.3726" y="142.1826">CertificateService</text></g><g class="participant participant-tail" data-entity-uid="part8" data-qualified-name="CERT" id="part8-tail"><rect fill="#E2E2F0" height="30.2969" rx="2.5" ry="2.5" style="stroke:#181818;stroke-width:0.5;" width="138.4619" x="1452.3726" y="1999.9297"/><text fill="#000000" font-family="sans-serif" font-size="14" lengthAdjust="spacing" textLength="124.4619" x="1459.3726" y="2019.9248">CertificateService</text></g><g class="participant participant-head" data-entity-uid="part9" data-qualified-name="DB" id="part9-head"><text fill="#000000" font-family="sans-serif" font-size="14" lengthAdjust="spacing" textLength="80.7529" x="1760.4624" y="101.292">PostgreSQL</text><text fill="#000000" font-family="sans-serif" font-size="14" lengthAdjust="spacing" textLength="164.5273" x="1718.5752" y="117.5889">(exam, exam_question,</text><text fill="#000000" font-family="sans-serif" font-size="14" lengthAdjust="spacing" textLength="212.3311" x="1694.6733" y="133.8857">exam_attempt, exam_answer,</text><text fill="#000000" font-family="sans-serif" font-size="14" lengthAdjust="spacing" textLength="163.7344" x="1718.9717" y="150.1826">certificate, notification)</text><path d="M1785.8389,52.2969 C1785.8389,42.2969 1803.8389,42.2969 1803.8389,42.2969 C1803.8389,42.2969 1821.8389,42.2969 1821.8389,52.2969 L1821.8389,78.2969 C1821.8389,88.2969 1803.8389,88.2969 1803.8389,88.2969 C1803.8389,88.2969 1785.8389,88.2969 1785.8389,78.2969 L1785.8389,52.2969" fill="#E2E2F0" style="stroke:#181818;stroke-width:0.5;"/><path d="M1785.8389,52.2969 C1785.8389,62.2969 1803.8389,62.2969 1803.8389,62.2969 C1803.8389,62.2969 1821.8389,62.2969 1821.8389,52.2969" fill="none" style="stroke:#181818;stroke-width:0.5;"/></g><g class="participant participant-tail" data-entity-uid="part9" data-qualified-name="DB" id="part9-tail"><text fill="#000000" font-family="sans-serif" font-size="14" lengthAdjust="spacing" textLength="80.7529" x="1760.4624" y="2012.9248">PostgreSQL</text><text fill="#000000" font-family="sans-serif" font-size="14" lengthAdjust="spacing" textLength="164.5273" x="1718.5752" y="2029.2217">(exam, exam_question,</text><text fill="#000000" font-family="sans-serif" font-size="14" lengthAdjust="spacing" textLength="212.3311" x="1694.6733" y="2045.5186">exam_attempt, exam_answer,</text><text fill="#000000" font-family="sans-serif" font-size="14" lengthAdjust="spacing" textLength="163.7344" x="1718.9717" y="2061.8154">certificate, notification)</text><path d="M1785.8389,2075.1172 C1785.8389,2065.1172 1803.8389,2065.1172 1803.8389,2065.1172 C1803.8389,2065.1172 1821.8389,2065.1172 1821.8389,2075.1172 L1821.8389,2101.1172 C1821.8389,2111.1172 1803.8389,2111.1172 1803.8389,2111.1172 C1803.8389,2111.1172 1785.8389,2111.1172 1785.8389,2101.1172 L1785.8389,2075.1172" fill="#E2E2F0" style="stroke:#181818;stroke-width:0.5;"/><path d="M1785.8389,2075.1172 C1785.8389,2085.1172 1803.8389,2085.1172 1803.8389,2085.1172 C1803.8389,2085.1172 1821.8389,2085.1172 1821.8389,2075.1172" fill="none" style="stroke:#181818;stroke-width:0.5;"/></g><g class="participant participant-head" data-entity-uid="part10" data-qualified-name="VIEW" id="part10-head"><rect fill="#E2E2F0" height="30.2969" rx="2.5" ry="2.5" style="stroke:#181818;stroke-width:0.5;" width="87.9717" x="1923.0044" y="122.1875"/><text fill="#000000" font-family="sans-serif" font-size="14" lengthAdjust="spacing" textLength="73.9717" x="1930.0044" y="142.1826">Thymeleaf</text></g><g class="participant participant-tail" data-entity-uid="part10" data-qualified-name="VIEW" id="part10-tail"><rect fill="#E2E2F0" height="30.2969" rx="2.5" ry="2.5" style="stroke:#181818;stroke-width:0.5;" width="87.9717" x="1923.0044" y="1999.9297"/><text fill="#000000" font-family="sans-serif" font-size="14" lengthAdjust="spacing" textLength="73.9717" x="1930.0044" y="2019.9248">Thymeleaf</text></g><rect fill="#EEEEEE" height="3" style="stroke:#EEEEEE;stroke-width:1;" width="2015.9761" x="0" y="184.0508"/><line style="stroke:#000000;stroke-width:1;" x1="0" x2="2015.9761" y1="184.0508" y2="184.0508"/><line style="stroke:#000000;stroke-width:1;" x1="0" x2="2015.9761" y1="187.0508" y2="187.0508"/><rect fill="#EEEEEE" height="23.1328" style="stroke:#000000;stroke-width:2;" width="257.4771" x="879.2495" y="173.4844"/><text fill="#000000" font-family="sans-serif" font-size="13" font-weight="bold" lengthAdjust="spacing" textLength="238.9512" x="885.2495" y="189.5513">Prof: cr&#233;er / planifier un examen</text><g class="message" data-entity-1="part1" data-entity-2="part3" id="msg1"><polygon fill="#181818" points="378.3037,223.75,388.3037,227.75,378.3037,231.75,382.3037,227.75" style="stroke:#181818;stroke-width:1;"/><line style="stroke:#181818;stroke-width:1;" x1="45.0679" x2="384.3037" y1="227.75" y2="227.75"/><text fill="#000000" font-family="sans-serif" font-size="13" lengthAdjust="spacing" textLength="147.5005" x="52.0679" y="222.6841">GET /prof/exam/create</text></g><g class="message" data-entity-1="part3" data-entity-2="part10" id="msg2"><polygon fill="#181818" points="1954.9902,252.8828,1964.9902,256.8828,1954.9902,260.8828,1958.9902,256.8828" style="stroke:#181818;stroke-width:1;"/><line style="stroke:#181818;stroke-width:1;" x1="390.3037" x2="1960.9902" y1="256.8828" y2="256.8828"/><text fill="#000000" font-family="sans-serif" font-size="13" lengthAdjust="spacing" textLength="195.9331" x="397.3037" y="251.8169">render prof/exam_create.html</text></g><g class="message" data-entity-1="part10" data-entity-2="part1" id="msg3"><polygon fill="#181818" points="56.0679,282.0156,46.0679,286.0156,56.0679,290.0156,52.0679,286.0156" style="stroke:#181818;stroke-width:1;"/><line style="stroke:#181818;stroke-width:1;stroke-dasharray:2,2;" x1="50.0679" x2="1965.9902" y1="286.0156" y2="286.0156"/><text fill="#000000" font-family="sans-serif" font-size="13" lengthAdjust="spacing" textLength="36.1753" x="62.0679" y="280.9497">HTML</text></g><g class="message" data-entity-1="part1" data-entity-2="part3" id="msg4"><polygon fill="#181818" points="378.3037,311.1484,388.3037,315.1484,378.3037,319.1484,382.3037,315.1484" style="stroke:#181818;stroke-width:1;"/><line style="stroke:#181818;stroke-width:1;" x1="45.0679" x2="384.3037" y1="315.1484" y2="315.1484"/><text fill="#000000" font-family="sans-serif" font-size="13" lengthAdjust="spacing" textLength="321.2358" x="52.0679" y="310.0825">POST /prof/exam (ExamCreateForm + options IA)</text></g><g class="message" data-entity-1="part3" data-entity-2="part5" id="msg5"><polygon fill="#181818" points="810.353,340.2813,820.353,344.2813,810.353,348.2813,814.353,344.2813" style="stroke:#181818;stroke-width:1;"/><line style="stroke:#181818;stroke-width:1;" x1="390.3037" x2="816.353" y1="344.2813" y2="344.2813"/><text fill="#000000" font-family="sans-serif" font-size="13" lengthAdjust="spacing" textLength="165.2485" x="397.3037" y="339.2153">createExam(form, profId)</text></g><g class="message" data-entity-1="part5" data-entity-2="part9" id="msg6"><polygon fill="#181818" points="1791.8389,369.4141,1801.8389,373.4141,1791.8389,377.4141,1795.8389,373.4141" style="stroke:#181818;stroke-width:1;"/><line style="stroke:#181818;stroke-width:1;" x1="822.353" x2="1797.8389" y1="373.4141" y2="373.4141"/><text fill="#000000" font-family="sans-serif" font-size="13" lengthAdjust="spacing" textLength="442.4634" x="829.353" y="368.3481">INSERT exam(status=DRAFT, classroom_id, window, duration, type)</text></g><g class="message" data-entity-1="part9" data-entity-2="part5" id="msg7"><polygon fill="#181818" points="833.353,398.5469,823.353,402.5469,833.353,406.5469,829.353,402.5469" style="stroke:#181818;stroke-width:1;"/><line style="stroke:#181818;stroke-width:1;stroke-dasharray:2,2;" x1="827.353" x2="1802.8389" y1="402.5469" y2="402.5469"/><text fill="#000000" font-family="sans-serif" font-size="13" lengthAdjust="spacing" textLength="48.4072" x="839.353" y="397.481">examId</text></g><path d="M749.8086,417.5469 L814.2515,417.5469 L814.2515,424.6797 L804.2515,434.6797 L749.8086,434.6797 L749.8086,417.5469" fill="#EEEEEE" style="stroke:#000000;stroke-width:1.5;"/><rect fill="none" height="237.8672" style="stroke:#000000;stroke-width:1.5;" width="1183.1958" x="749.8086" y="417.5469"/><text fill="#000000" font-family="sans-serif" font-size="13" font-weight="bold" lengthAdjust="spacing" textLength="19.4429" x="764.8086" y="430.6138">alt</text><text fill="#000000" font-family="sans-serif" font-size="11" font-weight="bold" lengthAdjust="spacing" textLength="170.0435" x="829.2515" y="429.7573">[IA: g&#233;n&#233;rer des questions]</text><g class="message" data-entity-1="part5" data-entity-2="part6" id="msg8"><polygon fill="#181818" points="1204.7705,451.8125,1214.7705,455.8125,1204.7705,459.8125,1208.7705,455.8125" style="stroke:#181818;stroke-width:1;"/><line style="stroke:#181818;stroke-width:1;" x1="822.353" x2="1210.7705" y1="455.8125" y2="455.8125"/><text fill="#000000" font-family="sans-serif" font-size="13" lengthAdjust="spacing" textLength="297.4893" x="829.353" y="450.7466">generateQuestions(prompt + course context)</text></g><g class="message" data-entity-1="part6" data-entity-2="part5" id="msg9"><polygon fill="#181818" points="833.353,480.9453,823.353,484.9453,833.353,488.9453,829.353,484.9453" style="stroke:#181818;stroke-width:1;"/><line style="stroke:#181818;stroke-width:1;stroke-dasharray:2,2;" x1="827.353" x2="1215.7705" y1="484.9453" y2="484.9453"/><text fill="#000000" font-family="sans-serif" font-size="13" lengthAdjust="spacing" textLength="187.7954" x="839.353" y="479.8794">questions (MCQ/OpenEnded)</text></g><path d="M759.8086,499.9453 L836.4326,499.9453 L836.4326,507.0781 L826.4326,517.0781 L759.8086,517.0781 L759.8086,499.9453" fill="#EEEEEE" style="stroke:#000000;stroke-width:1.5;"/><rect fill="none" height="75.3984" style="stroke:#000000;stroke-width:1.5;" width="1163.1958" x="759.8086" y="499.9453"/><text fill="#000000" font-family="sans-serif" font-size="13" font-weight="bold" lengthAdjust="spacing" textLength="31.624" x="774.8086" y="513.0122">loop</text><text fill="#000000" font-family="sans-serif" font-size="11" font-weight="bold" lengthAdjust="spacing" textLength="97.249" x="851.4326" y="512.1558">[each question]</text><g class="message" data-entity-1="part5" data-entity-2="part9" id="msg10"><polygon fill="#181818" points="1791.8389,534.2109,1801.8389,538.2109,1791.8389,542.2109,1795.8389,538.2109" style="stroke:#181818;stroke-width:1;"/><line style="stroke:#181818;stroke-width:1;" x1="822.353" x2="1797.8389" y1="538.2109" y2="538.2109"/><text fill="#000000" font-family="sans-serif" font-size="13" lengthAdjust="spacing" textLength="172.6563" x="829.353" y="533.145">INSERT exam_question(...)</text></g><g class="message" data-entity-1="part9" data-entity-2="part5" id="msg11"><polygon fill="#181818" points="833.353,563.3438,823.353,567.3438,833.353,571.3438,829.353,567.3438" style="stroke:#181818;stroke-width:1;"/><line style="stroke:#181818;stroke-width:1;stroke-dasharray:2,2;" x1="827.353" x2="1802.8389" y1="567.3438" y2="567.3438"/><text fill="#000000" font-family="sans-serif" font-size="13" lengthAdjust="spacing" textLength="15.4819" x="839.353" y="562.2778">ok</text></g><line style="stroke:#000000;stroke-width:1;stroke-dasharray:2,2;" x1="749.8086" x2="1933.0044" y1="583.3438" y2="583.3438"/><text fill="#000000" font-family="sans-serif" font-size="11" font-weight="bold" lengthAdjust="spacing" textLength="55.8325" x="754.8086" y="593.5542">[manuel]</text><g class="message" data-entity-1="part5" data-entity-2="part9" id="msg12"><polygon fill="#181818" points="1791.8389,614.2813,1801.8389,618.2813,1791.8389,622.2813,1795.8389,618.2813" style="stroke:#181818;stroke-width:1;"/><line style="stroke:#181818;stroke-width:1;" x1="822.353" x2="1797.8389" y1="618.2813" y2="618.2813"/><text fill="#000000" font-family="sans-serif" font-size="13" lengthAdjust="spacing" textLength="241.998" x="829.353" y="613.2153">INSERT exam_question(...) from form</text></g><g class="message" data-entity-1="part9" data-entity-2="part5" id="msg13"><polygon fill="#181818" points="833.353,643.4141,823.353,647.4141,833.353,651.4141,829.353,647.4141" style="stroke:#181818;stroke-width:1;"/><line style="stroke:#181818;stroke-width:1;stroke-dasharray:2,2;" x1="827.353" x2="1802.8389" y1="647.4141" y2="647.4141"/><text fill="#000000" font-family="sans-serif" font-size="13" lengthAdjust="spacing" textLength="15.4819" x="839.353" y="642.3481">ok</text></g><g class="message" data-entity-1="part5" data-entity-2="part9" id="msg14"><polygon fill="#181818" points="1791.8389,679.5469,1801.8389,683.5469,1791.8389,687.5469,1795.8389,683.5469" style="stroke:#181818;stroke-width:1;"/><line style="stroke:#181818;stroke-width:1;" x1="822.353" x2="1797.8389" y1="683.5469" y2="683.5469"/><text fill="#000000" font-family="sans-serif" font-size="13" lengthAdjust="spacing" textLength="312.1396" x="829.353" y="678.481">UPDATE exam(status=PUBLISHED/SCHEDULED)</text></g><g class="message" data-entity-1="part9" data-entity-2="part5" id="msg15"><polygon fill="#181818" points="833.353,708.6797,823.353,712.6797,833.353,716.6797,829.353,712.6797" style="stroke:#181818;stroke-width:1;"/><line style="stroke:#181818;stroke-width:1;stroke-dasharray:2,2;" x1="827.353" x2="1802.8389" y1="712.6797" y2="712.6797"/><text fill="#000000" font-family="sans-serif" font-size="13" lengthAdjust="spacing" textLength="15.4819" x="839.353" y="707.6138">ok</text></g><g class="message" data-entity-1="part5" data-entity-2="part3" id="msg16"><polygon fill="#181818" points="401.3037,737.8125,391.3037,741.8125,401.3037,745.8125,397.3037,741.8125" style="stroke:#181818;stroke-width:1;"/><line style="stroke:#181818;stroke-width:1;stroke-dasharray:2,2;" x1="395.3037" x2="821.353" y1="741.8125" y2="741.8125"/><text fill="#000000" font-family="sans-serif" font-size="13" lengthAdjust="spacing" textLength="48.4072" x="407.3037" y="736.7466">examId</text></g><g class="message" data-entity-1="part3" data-entity-2="part1" id="msg17"><polygon fill="#181818" points="56.0679,766.9453,46.0679,770.9453,56.0679,774.9453,52.0679,770.9453" style="stroke:#181818;stroke-width:1;"/><line style="stroke:#181818;stroke-width:1;stroke-dasharray:2,2;" x1="50.0679" x2="389.3037" y1="770.9453" y2="770.9453"/><text fill="#000000" font-family="sans-serif" font-size="13" lengthAdjust="spacing" textLength="169.4824" x="62.0679" y="765.8794">302 /prof/exam/{examId}</text></g><rect fill="#EEEEEE" height="3" style="stroke:#EEEEEE;stroke-width:1;" width="2015.9761" x="0" y="799.5117"/><line style="stroke:#000000;stroke-width:1;" x1="0" x2="2015.9761" y1="799.5117" y2="799.5117"/><line style="stroke:#000000;stroke-width:1;" x1="0" x2="2015.9761" y1="802.5117" y2="802.5117"/><rect fill="#EEEEEE" height="23.1328" style="stroke:#000000;stroke-width:2;" width="230.855" x="892.5605" y="788.9453"/><text fill="#000000" font-family="sans-serif" font-size="13" font-weight="bold" lengthAdjust="spacing" textLength="212.3291" x="898.5605" y="805.0122">&#201;tudiant: d&#233;marrer tentative</text><g class="message" data-entity-1="part2" data-entity-2="part4" id="msg18"><polygon fill="#181818" points="552.2261,839.2109,562.2261,843.2109,552.2261,847.2109,556.2261,843.2109" style="stroke:#181818;stroke-width:1;"/><line style="stroke:#181818;stroke-width:1;" x1="127.5986" x2="558.2261" y1="843.2109" y2="843.2109"/><text fill="#000000" font-family="sans-serif" font-size="13" lengthAdjust="spacing" textLength="194.4668" x="134.5986" y="838.145">GET /student/exam/{examId}</text></g><g class="message" data-entity-1="part4" data-entity-2="part9" id="msg19"><polygon fill="#181818" points="1791.8389,868.3438,1801.8389,872.3438,1791.8389,876.3438,1795.8389,872.3438" style="stroke:#181818;stroke-width:1;"/><line style="stroke:#181818;stroke-width:1;" x1="564.2261" x2="1797.8389" y1="872.3438" y2="872.3438"/><text fill="#000000" font-family="sans-serif" font-size="13" lengthAdjust="spacing" textLength="239.9668" x="571.2261" y="867.2778">SELECT exam + questions + window</text></g><g class="message" data-entity-1="part9" data-entity-2="part4" id="msg20"><polygon fill="#181818" points="575.2261,897.4766,565.2261,901.4766,575.2261,905.4766,571.2261,901.4766" style="stroke:#181818;stroke-width:1;"/><line style="stroke:#181818;stroke-width:1;stroke-dasharray:2,2;" x1="569.2261" x2="1802.8389" y1="901.4766" y2="901.4766"/><text fill="#000000" font-family="sans-serif" font-size="13" lengthAdjust="spacing" textLength="69.7354" x="581.2261" y="896.4106">exam data</text></g><g class="message" data-entity-1="part4" data-entity-2="part10" id="msg21"><polygon fill="#181818" points="1954.9902,926.6094,1964.9902,930.6094,1954.9902,934.6094,1958.9902,930.6094" style="stroke:#181818;stroke-width:1;"/><line style="stroke:#181818;stroke-width:1;" x1="564.2261" x2="1960.9902" y1="930.6094" y2="930.6094"/><text fill="#000000" font-family="sans-serif" font-size="13" lengthAdjust="spacing" textLength="207.8857" x="571.2261" y="925.5435">render student/exam_view.html</text></g><g class="message" data-entity-1="part10" data-entity-2="part2" id="msg22"><polygon fill="#181818" points="138.5986,955.7422,128.5986,959.7422,138.5986,963.7422,134.5986,959.7422" style="stroke:#181818;stroke-width:1;"/><line style="stroke:#181818;stroke-width:1;stroke-dasharray:2,2;" x1="132.5986" x2="1965.9902" y1="959.7422" y2="959.7422"/><text fill="#000000" font-family="sans-serif" font-size="13" lengthAdjust="spacing" textLength="36.1753" x="144.5986" y="954.6763">HTML</text></g><g class="message" data-entity-1="part2" data-entity-2="part4" id="msg23"><polygon fill="#181818" points="552.2261,984.875,562.2261,988.875,552.2261,992.875,556.2261,988.875" style="stroke:#181818;stroke-width:1;"/><line style="stroke:#181818;stroke-width:1;" x1="127.5986" x2="558.2261" y1="988.875" y2="988.875"/><text fill="#000000" font-family="sans-serif" font-size="13" lengthAdjust="spacing" textLength="237.1611" x="134.5986" y="983.8091">POST /student/exam/{examId}/start</text></g><g class="message" data-entity-1="part4" data-entity-2="part5" id="msg24"><polygon fill="#181818" points="810.353,1014.0078,820.353,1018.0078,810.353,1022.0078,814.353,1018.0078" style="stroke:#181818;stroke-width:1;"/><line style="stroke:#181818;stroke-width:1;" x1="564.2261" x2="816.353" y1="1018.0078" y2="1018.0078"/><text fill="#000000" font-family="sans-serif" font-size="13" lengthAdjust="spacing" textLength="182.3872" x="571.2261" y="1012.9419">startAttempt(stuId, examId)</text></g><g class="message" data-entity-1="part5" data-entity-2="part9" id="msg25"><polygon fill="#181818" points="1791.8389,1043.1406,1801.8389,1047.1406,1791.8389,1051.1406,1795.8389,1047.1406" style="stroke:#181818;stroke-width:1;"/><line style="stroke:#181818;stroke-width:1;" x1="822.353" x2="1797.8389" y1="1047.1406" y2="1047.1406"/><text fill="#000000" font-family="sans-serif" font-size="13" lengthAdjust="spacing" textLength="372.4487" x="829.353" y="1042.0747">INSERT exam_attempt(status=IN_PROGRESS, started_at)</text></g><g class="message" data-entity-1="part9" data-entity-2="part5" id="msg26"><polygon fill="#181818" points="833.353,1072.2734,823.353,1076.2734,833.353,1080.2734,829.353,1076.2734" style="stroke:#181818;stroke-width:1;"/><line style="stroke:#181818;stroke-width:1;stroke-dasharray:2,2;" x1="827.353" x2="1802.8389" y1="1076.2734" y2="1076.2734"/><text fill="#000000" font-family="sans-serif" font-size="13" lengthAdjust="spacing" textLength="64.2573" x="839.353" y="1071.2075">attemptId</text></g><g class="message" data-entity-1="part5" data-entity-2="part4" id="msg27"><polygon fill="#181818" points="575.2261,1101.4063,565.2261,1105.4063,575.2261,1109.4063,571.2261,1105.4063" style="stroke:#181818;stroke-width:1;"/><line style="stroke:#181818;stroke-width:1;stroke-dasharray:2,2;" x1="569.2261" x2="821.353" y1="1105.4063" y2="1105.4063"/><text fill="#000000" font-family="sans-serif" font-size="13" lengthAdjust="spacing" textLength="64.2573" x="581.2261" y="1100.3403">attemptId</text></g><g class="message" data-entity-1="part4" data-entity-2="part10" id="msg28"><polygon fill="#181818" points="1954.9902,1130.5391,1964.9902,1134.5391,1954.9902,1138.5391,1958.9902,1134.5391" style="stroke:#181818;stroke-width:1;"/><line style="stroke:#181818;stroke-width:1;" x1="564.2261" x2="1960.9902" y1="1134.5391" y2="1134.5391"/><text fill="#000000" font-family="sans-serif" font-size="13" lengthAdjust="spacing" textLength="206.54" x="571.2261" y="1129.4731">render student/exam_take.html</text></g><g class="message" data-entity-1="part10" data-entity-2="part2" id="msg29"><polygon fill="#181818" points="138.5986,1159.6719,128.5986,1163.6719,138.5986,1167.6719,134.5986,1163.6719" style="stroke:#181818;stroke-width:1;"/><line style="stroke:#181818;stroke-width:1;stroke-dasharray:2,2;" x1="132.5986" x2="1965.9902" y1="1163.6719" y2="1163.6719"/><text fill="#000000" font-family="sans-serif" font-size="13" lengthAdjust="spacing" textLength="36.1753" x="144.5986" y="1158.606">HTML</text></g><rect fill="#EEEEEE" height="3" style="stroke:#EEEEEE;stroke-width:1;" width="2015.9761" x="0" y="1192.2383"/><line style="stroke:#000000;stroke-width:1;" x1="0" x2="2015.9761" y1="1192.2383" y2="1192.2383"/><line style="stroke:#000000;stroke-width:1;" x1="0" x2="2015.9761" y1="1195.2383" y2="1195.2383"/><rect fill="#EEEEEE" height="23.1328" style="stroke:#000000;stroke-width:2;" width="184.168" x="915.9041" y="1181.6719"/><text fill="#000000" font-family="sans-serif" font-size="13" font-weight="bold" lengthAdjust="spacing" textLength="165.6421" x="921.9041" y="1197.7388">Soumission + notation</text><g class="message" data-entity-1="part2" data-entity-2="part4" id="msg30"><polygon fill="#181818" points="552.2261,1231.9375,562.2261,1235.9375,552.2261,1239.9375,556.2261,1235.9375" style="stroke:#181818;stroke-width:1;"/><line style="stroke:#181818;stroke-width:1;" x1="127.5986" x2="558.2261" y1="1235.9375" y2="1235.9375"/><text fill="#000000" font-family="sans-serif" font-size="13" lengthAdjust="spacing" textLength="335.3721" x="134.5986" y="1230.8716">POST /student/exam/{attemptId}/submit (answers)</text></g><g class="message" data-entity-1="part4" data-entity-2="part5" id="msg31"><polygon fill="#181818" points="810.353,1261.0703,820.353,1265.0703,810.353,1269.0703,814.353,1265.0703" style="stroke:#181818;stroke-width:1;"/><line style="stroke:#181818;stroke-width:1;" x1="564.2261" x2="816.353" y1="1265.0703" y2="1265.0703"/><text fill="#000000" font-family="sans-serif" font-size="13" lengthAdjust="spacing" textLength="234.127" x="571.2261" y="1260.0044">submitAttempt(attemptId, answers)</text></g><path d="M749.8086,1280.0703 L826.4326,1280.0703 L826.4326,1287.2031 L816.4326,1297.2031 L749.8086,1297.2031 L749.8086,1280.0703" fill="#EEEEEE" style="stroke:#000000;stroke-width:1.5;"/><rect fill="none" height="280" style="stroke:#000000;stroke-width:1.5;" width="1183.1958" x="749.8086" y="1280.0703"/><text fill="#000000" font-family="sans-serif" font-size="13" font-weight="bold" lengthAdjust="spacing" textLength="31.624" x="764.8086" y="1293.1372">loop</text><text fill="#000000" font-family="sans-serif" font-size="11" font-weight="bold" lengthAdjust="spacing" textLength="87.9678" x="841.4326" y="1292.2808">[each answer]</text><path d="M759.8086,1304.2031 L824.2515,1304.2031 L824.2515,1311.3359 L814.2515,1321.3359 L759.8086,1321.3359 L759.8086,1304.2031" fill="#EEEEEE" style="stroke:#000000;stroke-width:1.5;"/><rect fill="none" height="248.8672" style="stroke:#000000;stroke-width:1.5;" width="1163.1958" x="759.8086" y="1304.2031"/><text fill="#000000" font-family="sans-serif" font-size="13" font-weight="bold" lengthAdjust="spacing" textLength="19.4429" x="774.8086" y="1317.27">alt</text><text fill="#000000" font-family="sans-serif" font-size="11" font-weight="bold" lengthAdjust="spacing" textLength="38.4248" x="839.2515" y="1316.4136">[MCQ]</text><g class="message" data-entity-1="part5" data-entity-2="part5" id="msg32"><line style="stroke:#181818;stroke-width:1;" x1="822.353" x2="864.353" y1="1342.4688" y2="1342.4688"/><line style="stroke:#181818;stroke-width:1;" x1="864.353" x2="864.353" y1="1342.4688" y2="1355.4688"/><line style="stroke:#181818;stroke-width:1;" x1="823.353" x2="864.353" y1="1355.4688" y2="1355.4688"/><polygon fill="#181818" points="833.353,1351.4688,823.353,1355.4688,833.353,1359.4688,829.353,1355.4688" style="stroke:#181818;stroke-width:1;"/><text fill="#000000" font-family="sans-serif" font-size="13" lengthAdjust="spacing" textLength="71.7603" x="829.353" y="1337.4028">auto-grade</text></g><g class="message" data-entity-1="part5" data-entity-2="part9" id="msg33"><polygon fill="#181818" points="1791.8389,1380.6016,1801.8389,1384.6016,1791.8389,1388.6016,1795.8389,1384.6016" style="stroke:#181818;stroke-width:1;"/><line style="stroke:#181818;stroke-width:1;" x1="822.353" x2="1797.8389" y1="1384.6016" y2="1384.6016"/><text fill="#000000" font-family="sans-serif" font-size="13" lengthAdjust="spacing" textLength="262.1582" x="829.353" y="1379.5356">INSERT exam_answer(is_correct, points)</text></g><g class="message" data-entity-1="part9" data-entity-2="part5" id="msg34"><polygon fill="#181818" points="833.353,1409.7344,823.353,1413.7344,833.353,1417.7344,829.353,1413.7344" style="stroke:#181818;stroke-width:1;"/><line style="stroke:#181818;stroke-width:1;stroke-dasharray:2,2;" x1="827.353" x2="1802.8389" y1="1413.7344" y2="1413.7344"/><text fill="#000000" font-family="sans-serif" font-size="13" lengthAdjust="spacing" textLength="15.4819" x="839.353" y="1408.6685">ok</text></g><line style="stroke:#000000;stroke-width:1;stroke-dasharray:2,2;" x1="759.8086" x2="1923.0044" y1="1422.7344" y2="1422.7344"/><text fill="#000000" font-family="sans-serif" font-size="11" font-weight="bold" lengthAdjust="spacing" textLength="92.1841" x="764.8086" y="1432.9448">[OPEN_ENDED]</text><g class="message" data-entity-1="part5" data-entity-2="part6" id="msg35"><polygon fill="#181818" points="1204.7705,1453.6719,1214.7705,1457.6719,1204.7705,1461.6719,1208.7705,1457.6719" style="stroke:#181818;stroke-width:1;"/><line style="stroke:#181818;stroke-width:1;" x1="822.353" x2="1210.7705" y1="1457.6719" y2="1457.6719"/><text fill="#000000" font-family="sans-serif" font-size="13" lengthAdjust="spacing" textLength="370.4175" x="829.353" y="1452.606">gradeOpenEnded(rubric, expected_answer, studentText)</text></g><g class="message" data-entity-1="part6" data-entity-2="part5" id="msg36"><polygon fill="#181818" points="833.353,1482.8047,823.353,1486.8047,833.353,1490.8047,829.353,1486.8047" style="stroke:#181818;stroke-width:1;"/><line style="stroke:#181818;stroke-width:1;stroke-dasharray:2,2;" x1="827.353" x2="1215.7705" y1="1486.8047" y2="1486.8047"/><text fill="#000000" font-family="sans-serif" font-size="13" lengthAdjust="spacing" textLength="150.249" x="839.353" y="1481.7388">ai_score + ai_feedback</text></g><g class="message" data-entity-1="part5" data-entity-2="part9" id="msg37"><polygon fill="#181818" points="1791.8389,1511.9375,1801.8389,1515.9375,1791.8389,1519.9375,1795.8389,1515.9375" style="stroke:#181818;stroke-width:1;"/><line style="stroke:#181818;stroke-width:1;" x1="822.353" x2="1797.8389" y1="1515.9375" y2="1515.9375"/><text fill="#000000" font-family="sans-serif" font-size="13" lengthAdjust="spacing" textLength="378.0093" x="829.353" y="1510.8716">INSERT exam_answer(text_answer, ai_score, ai_feedback)</text></g><g class="message" data-entity-1="part9" data-entity-2="part5" id="msg38"><polygon fill="#181818" points="833.353,1541.0703,823.353,1545.0703,833.353,1549.0703,829.353,1545.0703" style="stroke:#181818;stroke-width:1;"/><line style="stroke:#181818;stroke-width:1;stroke-dasharray:2,2;" x1="827.353" x2="1802.8389" y1="1545.0703" y2="1545.0703"/><text fill="#000000" font-family="sans-serif" font-size="13" lengthAdjust="spacing" textLength="15.4819" x="839.353" y="1540.0044">ok</text></g><g class="message" data-entity-1="part5" data-entity-2="part9" id="msg39"><polygon fill="#181818" points="1791.8389,1584.2031,1801.8389,1588.2031,1791.8389,1592.2031,1795.8389,1588.2031" style="stroke:#181818;stroke-width:1;"/><line style="stroke:#181818;stroke-width:1;" x1="822.353" x2="1797.8389" y1="1588.2031" y2="1588.2031"/><text fill="#000000" font-family="sans-serif" font-size="13" lengthAdjust="spacing" textLength="391.3647" x="829.353" y="1583.1372">UPDATE exam_attempt(status=GRADED, score, finished_at)</text></g><g class="message" data-entity-1="part9" data-entity-2="part5" id="msg40"><polygon fill="#181818" points="833.353,1613.3359,823.353,1617.3359,833.353,1621.3359,829.353,1617.3359" style="stroke:#181818;stroke-width:1;"/><line style="stroke:#181818;stroke-width:1;stroke-dasharray:2,2;" x1="827.353" x2="1802.8389" y1="1617.3359" y2="1617.3359"/><text fill="#000000" font-family="sans-serif" font-size="13" lengthAdjust="spacing" textLength="15.4819" x="839.353" y="1612.27">ok</text></g><rect fill="#EEEEEE" height="3" style="stroke:#EEEEEE;stroke-width:1;" width="2015.9761" x="0" y="1645.9023"/><line style="stroke:#000000;stroke-width:1;" x1="0" x2="2015.9761" y1="1645.9023" y2="1645.9023"/><line style="stroke:#000000;stroke-width:1;" x1="0" x2="2015.9761" y1="1648.9023" y2="1648.9023"/><rect fill="#EEEEEE" height="23.1328" style="stroke:#000000;stroke-width:2;" width="276.8374" x="869.5693" y="1635.3359"/><text fill="#000000" font-family="sans-serif" font-size="13" font-weight="bold" lengthAdjust="spacing" textLength="258.3115" x="875.5693" y="1651.4028">Notification + certificat (optionnel)</text><g class="message" data-entity-1="part5" data-entity-2="part7" id="msg41"><polygon fill="#181818" points="1357.3374,1685.6016,1367.3374,1689.6016,1357.3374,1693.6016,1361.3374,1689.6016" style="stroke:#181818;stroke-width:1;"/><line style="stroke:#181818;stroke-width:1;" x1="822.353" x2="1363.3374" y1="1689.6016" y2="1689.6016"/><text fill="#000000" font-family="sans-serif" font-size="13" lengthAdjust="spacing" textLength="326.3457" x="829.353" y="1684.5356">notifyUser(stuId, type=GRADE, "Examen corrig&#233;")</text></g><g class="message" data-entity-1="part7" data-entity-2="part9" id="msg42"><polygon fill="#181818" points="1791.8389,1714.7344,1801.8389,1718.7344,1791.8389,1722.7344,1795.8389,1718.7344" style="stroke:#181818;stroke-width:1;"/><line style="stroke:#181818;stroke-width:1;" x1="1369.3374" x2="1797.8389" y1="1718.7344" y2="1718.7344"/><text fill="#000000" font-family="sans-serif" font-size="13" lengthAdjust="spacing" textLength="124.2363" x="1376.3374" y="1713.6685">INSERT notification</text></g><g class="message" data-entity-1="part9" data-entity-2="part7" id="msg43"><polygon fill="#181818" points="1380.3374,1743.8672,1370.3374,1747.8672,1380.3374,1751.8672,1376.3374,1747.8672" style="stroke:#181818;stroke-width:1;"/><line style="stroke:#181818;stroke-width:1;stroke-dasharray:2,2;" x1="1374.3374" x2="1802.8389" y1="1747.8672" y2="1747.8672"/><text fill="#000000" font-family="sans-serif" font-size="13" lengthAdjust="spacing" textLength="15.4819" x="1386.3374" y="1742.8013">ok</text></g><path d="M759.8086,1762.8672 L824.2515,1762.8672 L824.2515,1770 L814.2515,1780 L759.8086,1780 L759.8086,1762.8672" fill="#EEEEEE" style="stroke:#000000;stroke-width:1.5;"/><rect fill="none" height="133.6641" style="stroke:#000000;stroke-width:1.5;" width="1163.1958" x="759.8086" y="1762.8672"/><text fill="#000000" font-family="sans-serif" font-size="13" font-weight="bold" lengthAdjust="spacing" textLength="19.4429" x="774.8086" y="1775.9341">alt</text><text fill="#000000" font-family="sans-serif" font-size="11" font-weight="bold" lengthAdjust="spacing" textLength="154.5425" x="839.2515" y="1775.0776">[Score &gt;= seuil r&#233;ussite]</text><g class="message" data-entity-1="part5" data-entity-2="part8" id="msg44"><polygon fill="#181818" points="1509.6035,1797.1328,1519.6035,1801.1328,1509.6035,1805.1328,1513.6035,1801.1328" style="stroke:#181818;stroke-width:1;"/><line style="stroke:#181818;stroke-width:1;" x1="822.353" x2="1515.6035" y1="1801.1328" y2="1801.1328"/><text fill="#000000" font-family="sans-serif" font-size="13" lengthAdjust="spacing" textLength="284.0386" x="829.353" y="1796.0669">generate(stuId, examId/classroomId, score)</text></g><g class="message" data-entity-1="part8" data-entity-2="part9" id="msg45"><polygon fill="#181818" points="1791.8389,1826.2656,1801.8389,1830.2656,1791.8389,1834.2656,1795.8389,1830.2656" style="stroke:#181818;stroke-width:1;"/><line style="stroke:#181818;stroke-width:1;" x1="1521.6035" x2="1797.8389" y1="1830.2656" y2="1830.2656"/><text fill="#000000" font-family="sans-serif" font-size="13" lengthAdjust="spacing" textLength="258.2354" x="1528.6035" y="1825.1997">INSERT certificate(verification_code, ...)</text></g><g class="message" data-entity-1="part9" data-entity-2="part8" id="msg46"><polygon fill="#181818" points="1532.6035,1855.3984,1522.6035,1859.3984,1532.6035,1863.3984,1528.6035,1859.3984" style="stroke:#181818;stroke-width:1;"/><line style="stroke:#181818;stroke-width:1;stroke-dasharray:2,2;" x1="1526.6035" x2="1802.8389" y1="1859.3984" y2="1859.3984"/><text fill="#000000" font-family="sans-serif" font-size="13" lengthAdjust="spacing" textLength="15.4819" x="1538.6035" y="1854.3325">ok</text></g><g class="message" data-entity-1="part8" data-entity-2="part5" id="msg47"><polygon fill="#181818" points="833.353,1884.5313,823.353,1888.5313,833.353,1892.5313,829.353,1888.5313" style="stroke:#181818;stroke-width:1;"/><line style="stroke:#181818;stroke-width:1;stroke-dasharray:2,2;" x1="827.353" x2="1520.6035" y1="1888.5313" y2="1888.5313"/><text fill="#000000" font-family="sans-serif" font-size="13" lengthAdjust="spacing" textLength="77.6826" x="839.353" y="1883.4653">certificateId</text></g><g class="message" data-entity-1="part5" data-entity-2="part4" id="msg48"><polygon fill="#181818" points="575.2261,1920.6641,565.2261,1924.6641,575.2261,1928.6641,571.2261,1924.6641" style="stroke:#181818;stroke-width:1;"/><line style="stroke:#181818;stroke-width:1;stroke-dasharray:2,2;" x1="569.2261" x2="821.353" y1="1924.6641" y2="1924.6641"/><text fill="#000000" font-family="sans-serif" font-size="13" lengthAdjust="spacing" textLength="37.064" x="581.2261" y="1919.5981">result</text></g><g class="message" data-entity-1="part4" data-entity-2="part10" id="msg49"><polygon fill="#181818" points="1954.9902,1949.7969,1964.9902,1953.7969,1954.9902,1957.7969,1958.9902,1953.7969" style="stroke:#181818;stroke-width:1;"/><line style="stroke:#181818;stroke-width:1;" x1="564.2261" x2="1960.9902" y1="1953.7969" y2="1953.7969"/><text fill="#000000" font-family="sans-serif" font-size="13" lengthAdjust="spacing" textLength="215.0142" x="571.2261" y="1948.731">render student/exam_result.html</text></g><g class="message" data-entity-1="part10" data-entity-2="part2" id="msg50"><polygon fill="#181818" points="138.5986,1978.9297,128.5986,1982.9297,138.5986,1986.9297,134.5986,1982.9297" style="stroke:#181818;stroke-width:1;"/><line style="stroke:#181818;stroke-width:1;stroke-dasharray:2,2;" x1="132.5986" x2="1965.9902" y1="1982.9297" y2="1982.9297"/><text fill="#000000" font-family="sans-serif" font-size="13" lengthAdjust="spacing" textLength="36.1753" x="144.5986" y="1977.8638">HTML</text></g><!--SRC=[ZLRTJkD65BxtKnnnPGj3glOkKbOAYSb6OaE8GtkpKZJO9s1XZzsPCIog-W1z59w35-ivCxPZfx3q1eMPRxxpyvqVcypa255QNvRg7k4CeX-YGAd7C5Dlhy9afGH_hSfz06TVO8lIqDaJWl_sZwdJJ4XZBrQbSTY7bpkLfSXdCrGcssU9C9ud4bCgE64Yr1fhTG92mtfpVTbUTNps9jxUUfMWzqbMqPbxoQxDIcbKcUVOC4Ip8Iuc5dBo7MXy36LCZEefIz02edXuly0YazaqMmY3p-B5OXRJvH14WRiOAVW-sUg8x90CxCDcqMRhfSA8Ew6HeYorkLSOtrnzbpwIVo7mtzsVDMgs47wNzdzX31QLQMw5rC-ew2uv60b1zZmBhB7vnT2dxSDBWJcAlRtzVHdzuNcJ2N2gnv2G_AXW15Kk917HxrfQUoXXCl5OErQP51Z38jh2gA9t8mQC4eNaWaTNZ63YCIYKAN5qe9q3dJ-O8lSO0cVCHgnZ-BhzTkKDBQoluxu9yAt2be8gju1JA2kELCDo6hIMevZZO0oZ_Jq1G-l1CWqyBuePCxyOmt8LamusE5zJ8TTwCjzCBxSX9BdGMfLbiSlI49upcPRF8QIricaDmRnK67Zp2-iycsEEPKe5dnloP0ptRw_oxLLHv2bgQ7NK7e0pJmL589H8Z7ZJNlla9EbBKILbhQWo4gfb_642UaSlEciT7_ZVPZUZwmfbH6bE6PUNPGKeaeSEHOUjsQEekmBppy_F0ulhnLG-qWd9vs5EhXH2rfXx_ui9zXG7SDwzOqRcwqbmkvvFjz50WlNjnTKo_XhDH_6C_jvUHVD1gec4txSLqcJUIjzLqc-__DelpBySw6zRvzt46KFwzbe8nIgPRi9HZTCKOl_YhiIrcov7PB6hDWuZZgwYcSi4YNUGvxIfdTR_kFKOkFbRXa6dz6tjdZ9yFceLSgxjbBwVhb7UTPHEgVrROvn2Up1rmuJINY_JiCbZy7vxj9EdrMYvsb6Y5vieZaF7XYbX1ZerJqYRHYxhv-7qq-2DUCIFWoSbux8kCgrv_vpot7Ehw4Z0znBJEK6vgU-Ap83lXgaE1ccoTssUkaSXT63lq6tkZEgTHm1rPQ_hR3PgKvxTAv7YJzhHSVYPtYKbbML2axugCsdq1xt9VNczZbQxQ3MFvZrYDrxOMZSRV5NJYavOw8gOMI-tFzgaRvj1Cnmr8jjfSWOfm_HpZvZUYUJnynXuR7KMMfAmp_6JUVFXZ3YkmyLcIe5J28vzJujRF_ot58cPwwM_j7d6TciJVBT59EO1ru-plQANTfk-t6gAgEaJ7ltERkY-9MWlibePZVoJm5iT9wM_ZrkVLerFN2gnpUwN2T3dKPO3hT-QIjfWDsdvM-6mAuRjEkeM5P_PB71Q-ScH6xrl1Fy9LUSILLfAcMlcV-EVCsdrS5JjKZsGB7iojQscKDUv-Ron7UwZrluN]--></g></svg>